<svg xmlns="http://www.w3.org/2000/svg" xmlns:xlink="http://www.w3.org/1999/xlink" width="834" height="544" fill="none"><path opacity=".7" d="M817.15 494l-800.3 50C7.55 544 0 536.45 0 527.15l20-510.3C20 7.55 27.55 0 36.85 0l780.3 30c9.3 0 16.85 7.55 16.85 16.85v430.3c.01 9.3-7.54 16.86-16.84 16.86z" fill="#d7e6f4"/><path opacity=".63" d="M817.15 30L36.85 0C27.55 0 20 7.55 20 16.85V39l814 30V46.85c0-9.3-7.55-16.85-16.85-16.85z" fill="#fafbff"/><path d="M47 27a7 7 0 1 0 0-14 7 7 0 1 0 0 14zm21 0a7 7 0 1 0 0-14 7 7 0 1 0 0 14zm21 0a7 7 0 1 0 0-14 7 7 0 1 0 0 14z" fill="#7595e0"/><path opacity=".63" d="M440.2 100.14H92.45c-5.3 0-9.62 4.3-9.62 9.62v430l367-22.93V109.76a9.62 9.62 0 0 0-9.62-9.62z" fill="#fafbff"/><path d="M143.4 165.14h-39.15c-2.45 0-4.43-1.98-4.43-4.43v-39.15c0-2.45 1.98-4.43 4.43-4.43h39.15c2.45 0 4.43 1.98 4.43 4.43v39.15c0 2.44-1.98 4.43-4.43 4.43z" fill="#fff"/><g fill="#abcdf4"><use xlink:href="#B"/><path d="M228.84 133.13h-63.68a5.16 5.16 0 0 1 0-10.32h63.68a5.16 5.16 0 0 1 0 10.32z"/><use xlink:href="#C"/><use xlink:href="#D"/><path d="M359.16 133.13h63.68a5.16 5.16 0 1 0 0-10.32h-63.68a5.16 5.16 0 0 0 0 10.32z"/></g><path d="M135.5 143.8c-.36-4.66-2.53-7.58-4.44-10.16-1.77-2.4-3.3-4.45-3.3-7.5 0-.24-.14-.47-.35-.58-.22-.1-.48-.1-.68.05-2.88 2.06-5.28 5.53-6.1 8.84-.58 2.3-.66 4.9-.67 6.6-2.66-.57-3.26-4.54-3.26-4.58-.03-.2-.16-.4-.34-.48-.2-.1-.4-.1-.6-.01-.14.07-3.42 1.73-3.6 8.4-.01.22-.01.44-.01.67a11.74 11.74 0 0 0 11.72 11.72h.04a11.74 11.74 0 0 0 11.69-11.72l-.1-1.26z" fill="#ffc757"/><path d="M748.02 186.37c9.36 0 16.95-7.6 16.95-16.95s-7.6-16.95-16.95-16.95-16.95 7.6-16.95 16.95 7.6 16.95 16.95 16.95zM627 405.47a10.38 10.38 0 1 0 0-20.76 10.38 10.38 0 1 0 0 20.76zm-132.55 46.9c12.63 0 22.87-10.24 22.87-22.87s-10.24-22.87-22.87-22.87-22.87 10.24-22.87 22.87 10.24 22.87 22.87 22.87z" fill="#fff"/><path d="M671 191.3a8.3 8.3 0 0 0 0-16.6 8.3 8.3 0 0 0 0 16.6zM706 446a5.87 5.87 0 1 0 0-11.74 5.87 5.87 0 1 0 0 11.74z" fill="#9cc7f2"/><g fill="#abcdf4"><use xlink:href="#B"/><path d="M228.84 133.13h-63.68a5.16 5.16 0 0 1 0-10.32h63.68a5.16 5.16 0 0 1 0 10.32z"/><use xlink:href="#C"/><use xlink:href="#D"/><path d="M359.16 133.13h63.68a5.16 5.16 0 1 0 0-10.32h-63.68a5.16 5.16 0 0 0 0 10.32z"/><use xlink:href="#G" x="-197" y="56"/><use xlink:href="#E"/><use xlink:href="#E" y="22"/><path d="M423.5 344.47h-122c-2.5 0-4.5-2-4.5-4.5s2-4.5 4.5-4.5h122c2.5 0 4.5 2 4.5 4.5a4.5 4.5 0 0 1-4.5 4.5z"/><use xlink:href="#F"/><use xlink:href="#G"/><use xlink:href="#F" y="56"/><use xlink:href="#G" y="56"/><use xlink:href="#E" x="-197" y="-47"/><path d="M226.5 253.47h-26c-2.5 0-4.5-2-4.5-4.5s2-4.5 4.5-4.5h26c2.5 0 4.5 2 4.5 4.5a4.5 4.5 0 0 1-4.5 4.5z"/></g><path d="M619.54 205.48c-41.12.45-74.94 33.82-75.9 74.94-1.02 43.26 33.74 78.66 76.78 78.66 21.47 0 40.88-8.82 54.82-23.02a1.73 1.73 0 0 0-.53-2.8c-10.9-5-18.25-16.33-17.34-29.3 1.05-14.95 13.36-26.94 28.33-27.64 3.13-.15 6.15.2 9 .95 1.18.3 2.3-.62 2.2-1.83-3.5-39.5-36.87-70.42-77.36-69.97zm39.64 131.5a4.65 4.65 0 1 1-9.3 0 4.65 4.65 0 0 1 9.3 0zm25.44-67.42c-1.87 0-3.4-1.52-3.4-3.4s1.52-3.4 3.4-3.4 3.4 1.52 3.4 3.4-1.52 3.4-3.4 3.4z" fill="#9cc7f2"/><path opacity=".774" d="M636.8 258.02a16.56 16.56 0 0 1 1.44 3.41c.2.72.84 1.23 1.6 1.23h6.3c.92 0 1.66.74 1.66 1.66v4.45c0 .92-.74 1.66-1.66 1.66h-5.64c-.83 0-1.5.62-1.63 1.44-.64 4.02-2.28 7.4-4.92 10.12-2.95 3.04-6.82 5.02-11.6 5.92a13.76 13.76 0 0 1 5.24 2.43c1.55 1.17 3 2.82 4.37 4.95l12.74 18.98a1.66 1.66 0 0 1-1.38 2.58h-10.95c-.56 0-1.08-.28-1.38-.74l-14.08-21.3c-1.3-2.07-2.67-3.54-4.13-4.42-1.46-.87-3.38-1.3-5.78-1.3h-12.33c-.92 0-1.66-.74-1.66-1.66v-6.5c0-.92.74-1.66 1.66-1.66h19.03c3.75 0 6.73-.74 8.94-2.23a9.15 9.15 0 0 0 3.46-4.36c.42-1.07-.42-2.24-1.57-2.24h-29.85c-.92 0-1.66-.74-1.66-1.66v-4.45c0-.92.74-1.66 1.66-1.66h31.65c-.7-2.4-2.14-4.2-4.27-5.4-2.14-1.2-4.92-1.8-8.35-1.8h-19.03c-.92 0-1.66-.74-1.66-1.66v-4.45c0-.92.74-1.66 1.66-1.66h51.46c.92 0 1.66.74 1.66 1.66v4.45c0 .92-.74 1.66-1.66 1.66h-7.93c-1.3-.01-2.03 1.4-1.4 2.54z" fill="#fff"/><path d="M714.7 343.58c14.74 0 26.7-11.95 26.7-26.7s-11.95-26.7-26.7-26.7-26.7 11.95-26.7 26.7 11.95 26.7 26.7 26.7zm5.08-59.73a1.57 1.57 0 1 0 0-3.14 1.57 1.57 0 1 0 0 3.14zm-32.68 76.67a8.47 8.47 0 1 0 0-16.94 8.47 8.47 0 1 0 0 16.94z" fill="#9cc7f2"/><path opacity=".774" d="M718.68 311.9a4.14 4.14 0 0 1 .35.83c.05.17.2.3.38.3h1.53a.4.4 0 0 1 .4.4v1.08a.4.4 0 0 1-.4.4h-1.37c-.2 0-.36.15-.4.35-.16.98-.55 1.8-1.2 2.45-.7.74-1.65 1.22-2.8 1.44.47.1.9.3 1.27.6.38.28.73.68 1.06 1.2l3.1 4.6c.18.27-.01.63-.33.63h-2.66c-.14 0-.26-.07-.34-.18l-3.4-5.17c-.3-.5-.65-.86-1-1.07s-.82-.32-1.4-.32h-3a.4.4 0 0 1-.4-.4v-1.57a.4.4 0 0 1 .4-.4h4.6c.9 0 1.63-.18 2.17-.54.4-.26.67-.6.84-1.06.1-.26-.1-.54-.38-.54h-7.24a.4.4 0 0 1-.4-.4v-1.08a.4.4 0 0 1 .4-.4h7.68c-.17-.58-.52-1.02-1.04-1.3s-1.2-.44-2.03-.44h-4.6a.4.4 0 0 1-.4-.4v-1.08a.4.4 0 0 1 .4-.4h12.48a.4.4 0 0 1 .4.4v1.08a.4.4 0 0 1-.4.4h-1.92a.4.4 0 0 0-.35.61z" fill="#fff"/><defs><path id="B" d="M245.5 146.13h-82c-1.93 0-3.5-1.57-3.5-3.5s1.57-3.5 3.5-3.5h82c1.93 0 3.5 1.57 3.5 3.5s-1.57 3.5-3.5 3.5z"/><path id="C" d="M342.5 146.13h82c1.93 0 3.5-1.57 3.5-3.5s-1.57-3.5-3.5-3.5h-82c-1.93 0-3.5 1.57-3.5 3.5s1.57 3.5 3.5 3.5z"/><path id="D" d="M364.5 159.47h60c1.93 0 3.5-1.57 3.5-3.5s-1.57-3.5-3.5-3.5h-60c-1.93 0-3.5 1.57-3.5 3.5s1.57 3.5 3.5 3.5z"/><path id="E" d="M368.5 300.47h-67c-2.5 0-4.5-2-4.5-4.5s2-4.5 4.5-4.5h67c2.5 0 4.5 2 4.5 4.5a4.5 4.5 0 0 1-4.5 4.5z"/><path id="F" d="M401.5 366.47h-100c-2.5 0-4.5-2-4.5-4.5s2-4.5 4.5-4.5h100c2.5 0 4.5 2 4.5 4.5a4.5 4.5 0 0 1-4.5 4.5z"/><path id="G" d="M383.5 388.47h-82c-2.5 0-4.5-2-4.5-4.5s2-4.5 4.5-4.5h82c2.5 0 4.5 2 4.5 4.5a4.5 4.5 0 0 1-4.5 4.5z"/></defs></svg>