<svg xmlns="http://www.w3.org/2000/svg" width="581.06" height="560" viewBox="0 0 581.06 560"><path opacity=".2" fill="#05196D" d="M349.407 94.044l-52.373-29.623c-2.486-1.406-6.588-1.469-9.115-.14L97.545 164.349c-.081.042-.144.091-.218.136l60.53 35.044c.084-.039.181-.067.262-.109l191.21-100.406c2.529-1.327 2.563-3.564.078-4.97z"/><linearGradient id="a" gradientUnits="userSpaceOnUse" x1="134.232" y1="124.87" x2="216.409" y2="149.817"><stop offset="0" stop-color="#00ffc2"/><stop offset="1" stop-color="#0300bf"/></linearGradient><path opacity=".1" fill="url(#a)" d="M516.148 154.335L296.036 29.785c-1.19-.673-2.3-.97-4.3-.912v229.314c2-.059 3.11.239 4.3.912l220.158 124.55c1.007.569 1.497 1.3 1.531 2.031l-.292-228.287c.631-1.026.201-2.217-1.285-3.058z"/><linearGradient id="b" gradientUnits="userSpaceOnUse" x1="292.786" y1="-281.468" x2="292.786" y2="-38.261"><stop offset="0" stop-color="#00ffc2"/><stop offset="1" stop-color="#0300bf"/></linearGradient><path opacity=".1" fill="url(#b)" d="M296.626 235.223c-2.562-1.449-6.793-1.518-9.401-.154L21.238 374.216c-2.608 1.364-2.658 3.688-.111 5.162l265.515 153.719c2.547 1.475 6.762 1.558 9.366.186l268.34-141.46c2.604-1.373 2.638-3.682.076-5.131L296.626 235.223z"/><path fill="#27E2A8" d="M295.943 259.099c-2.107-1.192-5.585-1.249-7.73-.127L69.498 373.39c-2.145 1.122-2.186 3.032-.091 4.245l218.326 126.4c2.095 1.213 5.56 1.281 7.702.153l220.65-116.319c2.141-1.129 2.169-3.027.062-4.219L295.943 259.099z"/><linearGradient id="c" gradientUnits="userSpaceOnUse" x1="583.57" y1="-113.149" x2="318.508" y2="174.918"><stop offset="0" stop-color="#00ffc2"/><stop offset="1" stop-color="#0300bf"/></linearGradient><path opacity=".7" fill="url(#c)" d="M291.736 275.674c-3-.015-2.894-.334-3.965-.954L69.426 148.32c-1.034-.598-1.516-1.367-1.513-2.126l-.177-.119v229.724l.167.119c-.002.759.489 1.528 1.523 2.126l218.317 126.399c.952.551 1.441.864 2.707.937l-.714.019v-.018c2 .008 2 .01 2 .012V275.674z"/><path opacity=".2" fill="#05196D" d="M115.426 368.765c-5.971 3.123-6.084 8.438-.25 11.811l62.916 36.381c5.834 3.373 15.483 3.561 21.443.417l63.217-33.348c5.96-3.144 6.034-8.424.164-11.734l-63.546-35.83c-5.87-3.31-15.558-3.462-21.529-.339l-62.415 32.642z"/><linearGradient id="d" gradientUnits="userSpaceOnUse" x1="743.151" y1="-18.336" x2="291.394" y2="448.379"><stop offset="0" stop-color="#00ffc2"/><stop offset="1" stop-color="#0300bf"/></linearGradient><path opacity=".7" fill="url(#d)" d="M516.085 158.554L295.473 274.872c-1.046.552-1.736.815-3.736.801v229.72c2 .015 2.69-.246 3.736-.797l220.631-116.319c1.089-.574 1.619-1.347 1.612-2.125l-.002-.002-.287-228.762c-.263.43-.709.832-1.342 1.166z"/><path opacity=".2" fill="#05196D" d="M211.801 319.402c-5.971 3.123-6.084 8.438-.25 11.811l62.916 36.381c5.834 3.373 15.483 3.561 21.443.417l63.217-33.348c5.96-3.144 6.034-8.424.164-11.734l-63.546-35.83c-5.87-3.31-15.558-3.462-21.529-.339l-62.415 32.642z"/><path opacity=".2" fill="#05196D" d="M211.801 300.598c-5.971 3.123-6.084 8.438-.25 11.811l62.916 36.381c5.834 3.373 15.483 3.561 21.443.417l63.217-33.348c5.96-3.144 6.034-8.424.164-11.734l-63.546-35.83c-5.87-3.31-15.558-3.462-21.529-.339l-62.415 32.642z"/><path opacity=".2" fill="#05196D" d="M211.801 280.617c-5.971 3.123-6.084 8.438-.25 11.811l62.916 36.381c5.834 3.373 15.483 3.561 21.443.417l63.217-33.348c5.96-3.144 6.034-8.424.164-11.734l-63.546-35.83c-5.87-3.31-15.558-3.462-21.529-.339l-62.415 32.642z"/><path opacity=".1" fill="#FFF" d="M211.801 260.637c-5.971 3.123-6.084 8.438-.25 11.811l62.916 36.381c5.834 3.373 15.483 3.561 21.443.417l63.217-33.348c5.96-3.144 6.034-8.424.164-11.734l-63.546-35.83c-5.87-3.31-15.558-3.462-21.529-.339l-62.415 32.642z"/><linearGradient id="e" gradientUnits="userSpaceOnUse" x1="336.687" y1="100.367" x2="172.537" y2="290.877"><stop offset="0" stop-color="#00ffc2"/><stop offset="1" stop-color="#0300bf"/></linearGradient><path opacity=".8" fill="url(#e)" d="M295.943 29.785c-2.107-1.192-5.585-1.249-7.73-.127L69.498 144.075c-2.145 1.122-2.186 3.032-.091 4.245l218.326 126.4c2.095 1.213 5.56 1.281 7.702.153l220.65-116.319c2.141-1.129 2.169-3.027.062-4.219L295.943 29.785z"/><path fill="#FFF" d="M349.407 89.044l-52.374-29.623c-2.486-1.406-6.588-1.469-9.115-.14L97.546 159.349a5.32 5.32 0 0 0-.626.39l-3.97 2.026 4.493 2.601 25.794 14.933 30.287 17.534 3.521-1.966c.38-.126.742-.273 1.075-.448L349.329 94.014c2.529-1.327 2.563-3.564.078-4.97z"/><linearGradient id="f" gradientUnits="userSpaceOnUse" x1="483.719" y1="444.724" x2="284.325" y2="446.983"><stop offset="0" stop-color="#00ffc2"/><stop offset="1" stop-color="#0300bf"/></linearGradient><path opacity=".6" fill="url(#f)" d="M515.602 387.868L295.287 504.187c-1.075.567-1.55.831-3.55.8v.406c2 .015 2.69-.246 3.736-.797l220.631-116.319c1.089-.574 1.136-1.347 1.129-2.125l-.496-.002v-.298c-.001.741-.097 1.469-1.135 2.016z"/><path d="M168.39 160.079l-4.754-1.334-6.439 3.296 2.108 2.689-2.405 1.231-8.713-11.609 1.943-.994 20.647 5.5-2.387 1.221zm-12.459.352l4.848-2.481-8.708-2.427 3.86 4.908zm20.818-11.627l6.388 3.727-2.313 1.184-6.264-3.655c-.824-.48-1.567-.758-2.229-.834a3.238 3.238 0 0 0-1.88.342c-.704.36-1.02.797-.951 1.31.07.515.516 1.011 1.341 1.492l5.893 3.438-2.294 1.174-7.459-4.352a40.108 40.108 0 0 0-3.094-1.643l2.165-1.108 1.876.912c-.31-.532-.364-1.04-.159-1.521.206-.48.654-.898 1.345-1.252 2.233-1.143 4.778-.881 7.635.786zm5.027-12.186l15.165 8.848-2.276 1.165-1.669-.974c.293.482.336.953.128 1.412-.208.46-.651.863-1.329 1.21-.802.411-1.744.645-2.827.703-1.082.058-2.214-.066-3.397-.371-1.182-.305-2.31-.771-3.381-1.396s-1.84-1.262-2.305-1.912c-.464-.649-.605-1.265-.423-1.848.183-.583.681-1.083 1.496-1.5.666-.341 1.416-.554 2.249-.643a7.92 7.92 0 0 1 2.52.143l-6.264-3.654 2.313-1.183zm9.51 8.74c-.165-.562-.79-1.159-1.875-1.793-1.085-.633-2.133-1.015-3.143-1.145-1.01-.13-1.899.001-2.663.392-.777.398-1.086.875-.929 1.434.159.559.774 1.15 1.845 1.775 1.085.634 2.143 1.017 3.173 1.152 1.03.135 1.927.006 2.692-.386s1.065-.867.9-1.429zm6.047-11.58l2.33 1.38a5.168 5.168 0 0 0-1.49.469c-.79.403-1.136.86-1.041 1.368s.562 1.007 1.399 1.495l5.625 3.282-2.294 1.174-7.459-4.352a40.459 40.459 0 0 0-3.094-1.643l2.165-1.108 2.02.975c-.439-.512-.584-1.002-.436-1.469.148-.468.543-.865 1.185-1.193a3.94 3.94 0 0 1 1.09-.378zm15.239 3.145c-1.161.113-2.344.03-3.55-.247a12.342 12.342 0 0 1-3.458-1.379c-1.099-.642-1.863-1.3-2.292-1.976-.429-.676-.502-1.327-.22-1.953.282-.625.898-1.182 1.848-1.668.937-.479 1.984-.774 3.139-.884s2.335-.026 3.542.252c1.205.278 2.358.738 3.457 1.379 1.099.642 1.863 1.3 2.292 1.976.429.676.505 1.325.229 1.947-.276.623-.883 1.174-1.82 1.653-.951.487-2.006.787-3.167.9zm2.078-3.49c-.157-.543-.799-1.145-1.925-1.801-1.113-.649-2.171-1.037-3.174-1.163s-1.887.007-2.651.398c-.777.397-1.084.874-.92 1.429.164.556.803 1.158 1.916 1.807 1.126.656 2.181 1.046 3.165 1.167.983.122 1.863-.018 2.64-.416.789-.402 1.105-.876.949-1.421zm-5.227-10.922l2.572-1.316 2.535 1.479-2.572 1.317-2.535-1.48zm15.273 8.748l-10.405-6.071 2.294-1.174 10.405 6.071-2.294 1.174zm1.007-17.125l15.165 8.848-2.276 1.165-1.669-.975c.293.482.337.953.129 1.413s-.651.863-1.33 1.21c-.802.411-1.744.645-2.827.703-1.082.058-2.214-.066-3.397-.372-1.182-.305-2.31-.77-3.381-1.395s-1.84-1.263-2.305-1.913c-.464-.649-.605-1.265-.423-1.848.183-.583.682-1.083 1.496-1.5.666-.341 1.416-.555 2.25-.643a7.922 7.922 0 0 1 2.52.143l-6.264-3.654 2.312-1.182zm9.51 8.741c-.165-.562-.791-1.16-1.876-1.793s-2.133-1.015-3.143-1.145c-1.01-.129-1.898 0-2.663.392-.777.398-1.086.876-.929 1.435.159.559.774 1.15 1.845 1.775 1.085.634 2.143 1.017 3.173 1.152 1.03.134 1.927.005 2.692-.386.766-.391 1.066-.868.901-1.43zm19.569-7.309a14.951 14.951 0 0 1-3.546.394l-1.123-1.547c1.177-.016 2.242-.127 3.192-.336s1.84-.524 2.667-.947c.913-.467 1.44-.933 1.583-1.396.143-.465-.109-.885-.755-1.262-.549-.32-1.203-.448-1.96-.384-.758.064-1.798.292-3.12.683-2.051.613-3.77.929-5.154.945s-2.68-.328-3.89-1.034c-.866-.505-1.425-1.061-1.679-1.668-.253-.606-.187-1.22.199-1.839.387-.619 1.085-1.188 2.097-1.706.925-.474 1.959-.833 3.101-1.079s2.253-.344 3.333-.295l1.141 1.538c-2.215-.009-4.033.349-5.451 1.075-.852.436-1.328.894-1.43 1.375-.102.48.183.917.856 1.311.577.336 1.235.48 1.976.433s1.771-.267 3.093-.658c1.386-.394 2.593-.669 3.62-.827 1.028-.156 1.991-.176 2.89-.058a6.772 6.772 0 0 1 2.544.877c.879.513 1.435 1.066 1.668 1.661.233.596.133 1.2-.298 1.812-.434.612-1.186 1.193-2.259 1.742a14.276 14.276 0 0 1-3.295 1.19zm-1.7-14.905l4.848-2.481c2.158-1.105 4.472-1.588 6.94-1.453 2.468.136 4.863.881 7.184 2.235 2.335 1.363 3.55 2.723 3.644 4.082.094 1.359-.939 2.59-3.097 3.695l-4.848 2.481-14.671-8.559zm17.207 4.892c3.035-1.554 2.821-3.34-.641-5.36-3.434-2.003-6.668-2.229-9.703-.675l-2.312 1.184 10.344 6.035 2.312-1.184zm25.404-10.634l-2.924 1.497-12.986-.869 6.862 4.004-2.387 1.222-14.671-8.56 2.387-1.222 6.573 3.835-.689-6.847 2.868-1.468.645 7.389 14.322 1.019z" opacity=".9" fill="#7285B5"/><path opacity=".4" fill="#FFF" d="M93.736 161.765v69.337c0 3.232 2.446 5.264 5.589 4.515l15.878-3.797c.017-.004.005-.004.022-.008l5.577-1.33 3.404 4.261c.099.109.211.209.301.323l25.631 32.508c2.006 2.534 3.598 1.963 3.598-1.269v-69.471l-60-35.069z"/><path opacity=".2" fill="#05196D" d="M218.144 426.558c-5.971 3.123-6.084 8.438-.25 11.811l62.916 36.381c5.834 3.373 15.483 3.561 21.443.417l63.217-33.348c5.96-3.144 6.034-8.424.164-11.734l-63.546-35.83c-5.87-3.31-15.558-3.462-21.529-.339l-62.415 32.642zm-102.718-77.773c-5.971 3.123-6.084 8.438-.25 11.811l62.916 36.381c5.834 3.373 15.483 3.561 21.443.417l63.217-33.348c5.96-3.144 6.034-8.424.164-11.734l-63.546-35.83c-5.87-3.31-15.558-3.462-21.529-.339l-62.415 32.642z"/><path opacity=".1" fill="#FFF" d="M218.144 407.753c-5.971 3.123-6.084 8.438-.25 11.811l62.916 36.381c5.834 3.373 15.483 3.561 21.443.417l63.217-33.348c5.96-3.144 6.034-8.424.164-11.734l-63.546-35.83c-5.87-3.31-15.558-3.462-21.529-.339l-62.415 32.642z"/><path opacity=".4" fill="#FFF" d="M115.426 328.805c-5.971 3.123-6.084 8.438-.25 11.811l62.916 36.381c5.834 3.373 15.483 3.561 21.443.417l63.217-33.348c5.96-3.144 6.034-8.424.164-11.734l-63.546-35.83c-5.87-3.31-15.558-3.462-21.529-.339l-62.415 32.642z"/><path opacity=".2" fill="#05196D" d="M321.104 373.466c-5.971 3.123-6.084 8.438-.25 11.811l62.916 36.381c5.834 3.373 15.483 3.561 21.443.417l63.217-33.348c5.96-3.144 6.034-8.424.164-11.734l-63.546-35.83c-5.87-3.31-15.558-3.462-21.529-.339l-62.415 32.642z"/><path opacity=".3" fill="#FFF" d="M321.104 355.837c-5.971 3.123-6.084 8.438-.25 11.811l62.916 36.381c5.834 3.373 15.483 3.561 21.443.417l63.217-33.348c5.96-3.144 6.034-8.424.164-11.734l-63.546-35.83c-5.87-3.31-15.558-3.462-21.529-.339l-62.415 32.642z"/><g opacity=".5" fill="#FFF"><path d="M314.83 397.722c-4.475-1.75-9.338-3.035-14.609-3.876-7.399-1.181-14.727-1.358-21.961-.572a64.31 64.31 0 0 0-9.334 1.696c-1.969.515-3.741 1.16-5.6 1.75-1.339.565-2.714 1.109-3.881 1.771-4.262 2.18-7.396 4.737-9.252 7.729-2.745 4.425-2.526 8.957.513 13.585 1.218 1.855 2.94 3.613 5.11 5.271.296.226.537.47.803.705 2.137 1.534 4.656 2.903 7.307 4.213 4.925 2.088 10.229 3.807 16.234 4.853 8.632 1.503 17.129 1.683 25.515.551 3.643-.492 6.961-1.298 10.133-2.251.77-.232 1.48-.511 2.217-.768l6.006-2.617c-.06-.419.697-.557 1.084-.803 4.453-2.84 7.232-6.101 8.122-9.817 1.292-5.396-1.116-10.51-7.321-15.33-.769-.598-1.527-1.21-2.458-1.742l-4.684-2.672c-1.358-.515-2.581-1.143-3.944-1.676zm-16.856 6.55c.579.348.567.621-.037.897-.944.432-1.909.852-2.861 1.278-.783.351-.792.454-.054.876l23.037 13.155c.287.164.592.322.85.497.426.288.456.576-.04.806-.854.396-1.714.791-2.612 1.162-.758.313-1.322.252-2.141-.213-2.575-1.462-5.136-2.93-7.709-4.392-.22-.125-.389-.284-.88-.381.166.686.165 1.317-.48 1.852-2.093 1.737-5.052 2.911-9.193 3.192-2.41.164-4.676-.269-6.735-1.067-1.116-.433-2.022-.962-2.945-1.488-2.962-1.686-5.916-3.375-8.881-5.06-1.072-.61-1.09-.607-2.174-.13-.704.31-1.395.627-2.106.933-.658.283-1.194.272-1.857-.075-.71-.371-1.387-.76-2.033-1.16-.575-.356-.478-.62.267-.95 4.062-1.801 8.146-3.589 12.214-5.387l1.813-.801c-.545-.258-.825-.136-1.183-.163a154.643 154.643 0 0 1-13.149-1.594 296.852 296.852 0 0 0-4.686-.722 3.488 3.488 0 0 1-1.15-.369c-.436-.23-.505-.473-.07-.672a119.88 119.88 0 0 1 3.328-1.464c.47-.198 1.072-.173 1.678-.066 4.579.804 9.158 1.606 13.738 2.408 1.224.215 2.435.461 3.674.636 1.032.146 2.007.175 2.873-.239 1.787-.854 3.686-1.648 5.544-2.464.792-.347 1.348-.319 2.116.108.624.348 1.245.698 1.844 1.057z"/><path d="M288.755 409.262c-2.407 1.06-4.798 2.129-7.218 3.181-.593.258-.664.474-.049.814 1.712.946 3.375 1.915 5.058 2.874 1.683.959 3.353 1.924 5.051 2.877 1.694.951 3.976 1.168 5.859.539 1.084-.362 2.084-.781 2.972-1.267.634-.347.988-.758 1.182-1.216.409-.965-.596-1.757-1.798-2.462-3.006-1.766-6.098-3.494-9.158-5.236-.776-.442-1.09-.461-1.899-.104z"/></g><path opacity=".6" fill="#FFF" d="M157.543 323.141l4.236-3.124c.31.062.404-.088.556-.173 11.754-6.589 29.682-7.56 44.067-2.231 10.887 4.033 16.533 9.79 16.46 16.926-.08 7.785-6.728 13.41-18.941 16.923-.472.136-.985.201-1.14.578-.978 2.371-2.005 4.735-3.016 7.101-.266.161-.399.164-.699-.052-2.497-1.794-5.056-3.561-7.547-5.357-.475-.342-.923-.47-1.687-.462-5.973.061-11.66-.69-17.069-2.238-.902-.258-1.679-.682-2.743-.743l-5.762-2.482c-.036-.36-.628-.499-.992-.709-10.592-6.104-13.362-14.938-7.022-22.395.44-.519 1.136-.968 1.299-1.562zm10.517 16.3c1.551.682 3.311 1.116 5.165 1.425 5.089.848 10.226.882 15.355.51 7.221-.525 13.972-1.706 19.751-4.201 3.338-1.441 5.309-3.27 5.085-5.737-.089-.979-.618-1.876-1.914-2.612-1.875-1.064-2.891-1.197-5.272-.669-2.152.478-4.173 1.09-6.133 1.764-1.404.482-1.659.77-1.285 1.691.335.826.78 1.64 1.183 2.458.285.579-.046.936-1.009 1.222-5.692 1.693-11.805 2.273-18.315 1.917-.872-.048-1.303-.266-1.5-.702-.314-.692-.615-1.386-.934-2.078-.284-.614-.99-1.012-2.061-1.218-2.881-.554-5.794-1.033-8.775-1.361-.673-.074-1.308-.053-1.769.214-1.534.888-2.661 1.877-2.18 3.234.601 1.696 2.194 3.056 4.608 4.143z"/><g fill="#FFF"><path opacity=".4" d="M363.5 356.53l39.984 26.101-6.045-26.685z"/><path opacity=".4" d="M399.79 353.596l3.296 14.55 12.152 7.933-6.044-26.684-33.939.584 6.028 3.935z"/></g><path opacity=".1" fill="#FFF" d="M295.745 228.334c-5.87-3.31-15.558-3.462-21.529-.339l-35.3 18.462 48.818 28.263c2.095 1.213 5.56 1.281 7.701.153l42.816-22.571-42.506-23.968z"/><linearGradient id="g" gradientUnits="userSpaceOnUse" x1="101.603" y1="168.987" x2="119.61" y2="190.311"><stop offset="0" stop-color="#00ffc2"/><stop offset="1" stop-color="#0300bf"/></linearGradient><path opacity=".1" fill="url(#g)" d="M153.736 266.822l.588.751c2.006 2.534 3.412 1.963 3.412-1.269v-67.003l-4-2.317v69.838z"/><path fill="#FFF" d="M118.523 210.508c-.001.746.268 1.397.672 1.628l.674.384-.008 2.663c-.002.995.469 2.134 1.008 2.442.539.307 1.013-.294 1.015-1.289l.008-2.663 1.349.768-.008 2.663c-.002.995.469 2.134 1.008 2.442.539.307 1.013-.294 1.015-1.289l.008-2.663.674.384c.405.231.675-.113.676-.859l.022-7.366-8.091-4.61-.022 7.365zm-1.664-8.326c-.539-.307-1.013.294-1.015 1.289l-.015 3.635c-.002.995.469 2.134 1.008 2.442.539.307 1.013-.294 1.015-1.289l.015-3.635c.002-.996-.468-2.135-1.008-2.442zm11.463 6.531c-.539-.307-1.013.294-1.015 1.289l-.015 3.635c-.002.995.469 2.134 1.008 2.442.539.307 1.013-.294 1.015-1.289l.015-3.635c.002-.995-.469-2.135-1.008-2.442zm-3.359-9.134l.879-1.117c.135-.172.136-.545.002-.871-.134-.326-.337-.441-.472-.269l-1.015 1.289c-.471-.891-1.077-1.485-1.752-1.869-.674-.384-1.282-.481-1.822-.291l-.941-2.403c-.135-.201-.404-.355-.539-.307-.068.21-.069.708-.002.995l.874 2.116c-.946.83-1.624 2.56-1.629 5.047l8.091 4.61c.006-2.487-.665-5.11-1.674-6.93zm-3.714 1.369l-.674-.384.002-1.244.674.384-.002 1.244zm3.371 1.921l-.674-.384.002-1.244.674.384-.002 1.244z"/></svg>