<svg xmlns="http://www.w3.org/2000/svg" width="607" height="485" viewBox="0 0 607 485">
    <g fill="none" fill-rule="evenodd" transform="translate(0 -.363)">
        <path fill="#D8F4EB" d="M363.244 52.716s-37.297 82.694-250.12 98.83c-212.822 16.13-68.019 399.348 291.81 318.672 367.253-82.345 120.678-623.23-41.69-417.502" opacity=".5"/>
        <path fill="#D8F4EB" d="M238.42 482.547s-261.341-46.34-219.982-269.75C59.804-10.609 189.533-42.052 296.706 45.657c107.165 87.71 253.813 23.163 295.179 125.769 41.359 102.605-75.211 342.557-353.465 311.12" opacity=".5"/>
        <path fill="#B9EBDB" d="M233.719 143.363H607l-65.719 238H168z"/>
        <path fill="#FFF" d="M242.275 149.363H596l-62.275 226H180z"/>
        <path fill="#E1F6F0" d="M266.715 192.363H337l-33.715 101H233zM369.585 252.363c8.235 0 14.91 6.676 14.91 14.91a14.91 14.91 0 0 1-.926 5.175l-.307.83a30.757 30.757 0 0 1-28.847 20.085c-8.235 0-14.91-6.676-14.91-14.91 0-1.767.313-3.519.926-5.175l.307-.83a30.757 30.757 0 0 1 28.847-20.085zM426.585 252.363c8.235 0 14.91 6.676 14.91 14.91a14.91 14.91 0 0 1-.926 5.175l-.307.83a30.757 30.757 0 0 1-28.847 20.085c-8.235 0-14.91-6.676-14.91-14.91 0-1.767.313-3.519.926-5.175l.307-.83a30.757 30.757 0 0 1 28.847-20.085zM483.585 252.363c8.235 0 14.91 6.676 14.91 14.91a14.91 14.91 0 0 1-.926 5.175l-.307.83a30.757 30.757 0 0 1-28.847 20.085c-8.235 0-14.91-6.676-14.91-14.91 0-1.767.313-3.519.926-5.175l.307-.83a30.757 30.757 0 0 1 28.847-20.085z"/>
        <path fill="#A5F1D7" d="M0 136.363h169v111H0z"/>
        <path fill="#E5F9F3" d="M35.336 154.407a7.286 7.286 0 0 1 4.994-1.968c4.03 0 7.297 3.256 7.297 7.272 0 4.017-3.267 7.273-7.297 7.273a7.286 7.286 0 0 1-4.994-1.97 7.286 7.286 0 0 1-4.993 1.97c-4.03 0-7.298-3.256-7.298-7.273 0-4.016 3.268-7.272 7.298-7.272 1.932 0 3.688.747 4.993 1.968zm0 0a7.24 7.24 0 0 0-2.304 5.304 7.24 7.24 0 0 0 2.304 5.304 7.24 7.24 0 0 0 2.305-5.304 7.24 7.24 0 0 0-2.305-5.304z"/>
        <path fill="#84E1C3" d="M23.045 176.17h22.277v16.076H23.045zM23.045 208.322h116.764v6.89H23.045zM23.045 224.397h19.973v6.89H23.045zM62.991 224.397h19.973v6.89H62.991z"/>
        <path fill="#EBF9F5" d="M174.308 112.363H288l-63.308 192H111z"/>
        <path fill="#FFF" d="M173.308 109.363H287l-63.308 192H110z"/>
        <path fill="#E1F6F0" d="M176.644 123.363H274l-27.644 87H149z"/>
        <path fill="#B9EBDB" d="M32 381.363h510v27H32zM272.414 222.034h31.682l-8.687 46.329H256z"/>
        <path fill="#A7E6D2" fill-rule="nonzero" d="M289.227 207.749a5.343 5.343 0 0 1 5.218 6.5l-1.817 8.17h-13.155l1.854-8.338a8.091 8.091 0 0 1 7.9-6.332zm2.781 13.899l1.683-7.567a4.57 4.57 0 0 0-4.464-5.56 7.319 7.319 0 0 0-7.145 5.728l-1.646 7.399h11.572z"/>
        <path fill="#A7E6D2" fill-rule="nonzero" d="M296.955 210.065a5.134 5.134 0 0 1 4.962 6.455l-1.575 5.9H287.18l1.628-6.1a8.432 8.432 0 0 1 8.148-6.255zm4.215 6.256a4.361 4.361 0 0 0-4.216-5.483 7.659 7.659 0 0 0-7.4 5.682l-1.37 5.128h11.565l1.421-5.327z"/>
        <path fill="#A7E6D2" d="M304.096 222.078l2.904 3.416-5.023 42.869h-6.568z"/>
        <g fill="#A5F1D7" fill-rule="nonzero">
            <path d="M313.113 84.96h.004l.009.002 39.765 10.655a2.271 2.271 0 0 0 2.535-1.025l17-28.349a2.27 2.27 0 0 0-1.36-3.36l-53.61-14.365.323-7.474a2.271 2.271 0 0 0-1.682-2.291l-13.16-3.526a2.27 2.27 0 1 0-1.175 4.385l11.401 3.055-1.628 37.75a6.82 6.82 0 0 0-5.583 4.973c-.972 3.627 1.189 7.37 4.817 8.341l39.772 10.657a2.27 2.27 0 1 0 1.175-4.385l-39.772-10.657a2.273 2.273 0 0 1-1.606-2.78 2.272 2.272 0 0 1 2.775-1.607zm53.87-18.47l-14.571 24.298-36.358-9.742 1.202-27.881 49.727 13.324z"/>
            <path d="M307.189 99.507a6.914 6.914 0 0 0 4.883 8.459 6.914 6.914 0 0 0 8.459-4.884 6.914 6.914 0 0 0-4.884-8.459 6.914 6.914 0 0 0-8.458 4.884zm7.267-.436a2.305 2.305 0 0 1 1.627 2.82 2.305 2.305 0 0 1-2.82 1.627 2.305 2.305 0 0 1-1.627-2.82 2.305 2.305 0 0 1 2.82-1.627zM337.884 108.716a6.914 6.914 0 0 0 4.883 8.458 6.914 6.914 0 0 0 8.46-4.883 6.914 6.914 0 0 0-4.884-8.459 6.914 6.914 0 0 0-8.46 4.884zm7.267-.437a2.305 2.305 0 0 1 1.628 2.82 2.305 2.305 0 0 1-2.82 1.628 2.305 2.305 0 0 1-1.628-2.82 2.305 2.305 0 0 1 2.82-1.628z"/>
        </g>
        <path fill="#B9EBDB" d="M149.923 222.363h82.458a4.564 4.564 0 0 1 4.467 5.5 6.918 6.918 0 0 1-6.771 5.5h-82.458a4.564 4.564 0 0 1-4.467-5.5 6.918 6.918 0 0 1 6.771-5.5zM368.89 196.363h152.252a4.092 4.092 0 0 1 3.842 5.5 8.386 8.386 0 0 1-7.874 5.5H364.858a4.092 4.092 0 0 1-3.842-5.5 8.386 8.386 0 0 1 7.874-5.5z"/>
        <path fill="#D8F4EB" d="M140.8 238.363h66.164a1.684 1.684 0 0 1 1.654 2 2.461 2.461 0 0 1-2.418 2h-66.164a1.684 1.684 0 0 1-1.654-2c.221-1.16 1.236-2 2.418-2zM358.454 214.363H477.89a1.517 1.517 0 0 1 1.438 2 2.935 2.935 0 0 1-2.782 2H357.11a1.517 1.517 0 0 1-1.438-2 2.935 2.935 0 0 1 2.782-2zM138.374 246.363h40.618a1.833 1.833 0 0 1 1.825 2 2.2 2.2 0 0 1-2.191 2h-40.618a1.833 1.833 0 0 1-1.825-2 2.2 2.2 0 0 1 2.191-2zM352.668 225.363h74.306a1.726 1.726 0 0 1 1.705 2 2.377 2.377 0 0 1-2.347 2h-74.306a1.726 1.726 0 0 1-1.705-2c.185-1.153 1.18-2 2.347-2z"/>
        <g>
            <path fill="#8EDDC4" d="M433.764 333.098l59.246-.04c5.652-.003 10.236 4.575 10.24 10.227 0 .453-.03.907-.09 1.356a13.361 13.361 0 0 1-13.234 11.599l-59.247.04a10.233 10.233 0 0 1-10.15-11.583 13.361 13.361 0 0 1 13.235-11.599z"/>
            <path fill="#00CC87" d="M433.09 333.099l59.217-.04a9.565 9.565 0 0 1 9.477 10.903 12.694 12.694 0 0 1-12.56 10.918l-59.218.04a9.565 9.565 0 0 1-9.477-10.903 12.694 12.694 0 0 1 12.561-10.918z"/>
            <path fill="#FFF" fill-rule="nonzero" d="M435.997 344.918v2.726h-1.614v-7.737h3.056c.588 0 1.105.106 1.552.318.446.213.79.515 1.03.906.24.392.36.837.36 1.337 0 .758-.262 1.356-.788 1.793-.525.438-1.252.657-2.181.657h-1.415zm0-1.292h1.442c.427 0 .752-.099.976-.297.224-.199.337-.482.337-.85 0-.38-.113-.686-.34-.92-.225-.234-.537-.354-.936-.361h-1.479v2.428zm9.915 2.424h-2.83l-.538 1.594h-1.716l2.916-7.737h1.496l2.932 7.737h-1.716l-.544-1.594zm-2.394-1.292h1.959l-.985-2.896-.974 2.896zm8.086-1.365l1.63-3.486H455l-2.572 4.931v2.806h-1.64v-2.806l-2.572-4.931h1.77l1.62 3.486zm6.22-3.486l2.012 5.611 2.001-5.611h2.12v7.737h-1.62v-2.115l.162-3.65-2.114 5.765h-1.109l-2.109-5.76.162 3.645v2.115h-1.614v-7.737h2.109zm12.255 4.384h-3.099v2.072h3.637v1.28h-5.25v-7.736h5.24v1.29h-3.627v1.845h3.1v1.249zm7.855 3.353h-1.614l-3.142-5.091v5.09h-1.614v-7.736h1.614l3.147 5.101v-5.101h1.61v7.737zm7.306-6.446h-2.4v6.446h-1.613v-6.446h-2.368v-1.291h6.381v1.29z"/>
        </g>
        <g>
            <path fill="#B9EBDB" d="M195.732 151.034h31.391l-7.076 46.329H181z"/>
            <path fill="#A7E6D2" fill-rule="nonzero" d="M213.156 136.749c2.925 0 5.296 2.391 5.296 5.341 0 .39-.042.778-.126 1.159l-1.8 8.17h-13.034l1.837-8.338c.815-3.7 4.07-6.332 7.827-6.332zm2.756 13.899l1.667-7.567c.072-.325.108-.657.108-.99 0-2.524-2.029-4.57-4.53-4.57-3.4 0-6.343 2.381-7.08 5.728l-1.631 7.399h11.466z"/>
            <path fill="#A7E6D2" fill-rule="nonzero" d="M220.813 139.065c2.81 0 5.088 2.298 5.088 5.132 0 .447-.058.891-.172 1.323l-1.56 5.9h-13.042l1.612-6.1c.976-3.688 4.288-6.255 8.073-6.255zm4.176 6.256c.097-.367.146-.744.146-1.124 0-2.408-1.935-4.36-4.322-4.36-3.439 0-6.448 2.332-7.334 5.683l-1.356 5.128h11.458l1.408-5.327z"/>
            <path fill="#A7E6D2" d="M227.123 151.078l2.877 3.416-3.445 42.869h-6.508z"/>
        </g>
        <g>
            <path fill="#8EDDC4" d="M141.343 262.023l65.38-.04c7.018-.004 12.71 5.68 12.713 12.697v.016c-.004 7.027-5.7 12.723-12.728 12.728l-65.38.04c-7.017.003-12.709-5.681-12.713-12.698v-.015c.004-7.028 5.7-12.724 12.728-12.728z"/>
            <path fill="#00CC87" d="M140.595 262.023l65.363-.04c6.604-.003 11.961 5.347 11.965 11.95v.015c-.004 6.615-5.365 11.976-11.98 11.98l-65.363.04c-6.604.003-11.96-5.347-11.964-11.951v-.015c.004-6.614 5.365-11.975 11.979-11.979z"/>
            <path fill="#FFF" fill-rule="nonzero" d="M147.303 274.967v2.999h-1.774v-8.511h3.359c.646 0 1.215.117 1.706.35.49.234.868.566 1.132.997.264.43.396.92.396 1.47 0 .834-.289 1.492-.866 1.973-.578.481-1.377.722-2.398.722h-1.555zm0-1.42h1.585c.469 0 .827-.11 1.073-.328.246-.218.37-.53.37-.935 0-.417-.125-.754-.373-1.011-.248-.258-.591-.39-1.029-.398h-1.626v2.672zm10.898 2.665h-3.11l-.592 1.754h-1.886l3.205-8.511h1.644l3.222 8.51h-1.886l-.597-1.753zm-2.631-1.42h2.152l-1.082-3.186-1.07 3.186zm8.887-1.503l1.792-3.834h1.94l-2.827 5.424v3.087h-1.804v-3.087l-2.826-5.424h1.945l1.78 3.834zm6.836-3.834l2.211 6.173 2.2-6.173h2.33v8.51h-1.78v-2.326l.177-4.016-2.324 6.343h-1.218l-2.318-6.337.178 4.01v2.327h-1.774v-8.511h2.318zm13.47 4.822h-3.406v2.28h3.997v1.409h-5.771v-8.511h5.76v1.42h-3.986v2.029h3.406v1.373zm8.633 3.689h-1.774l-3.453-5.6v5.6h-1.774v-8.511h1.774l3.459 5.611v-5.611h1.768v8.51zm8.03-7.09h-2.637v7.09h-1.774v-7.09h-2.602v-1.421h7.013v1.42z"/>
        </g>
        <path fill="#A5F1D7" fill-rule="nonzero" d="M157.97 50.653l-6.197 1.66c1.29 1.174 2.323 2.659 3.1 4.455l5.96-1.597-.005 6.267-4.418 1.184c.332 3.055-.22 5.703-1.653 7.943-1.433 2.241-3.837 4.182-7.21 5.825l17.055 11.823.11.414-9.813 2.63-18.836-12.898-1.422-5.188 7.026-1.883c3.657-.98 5.557-3.061 5.7-6.243l-14.617 3.917-.025-6.26 12.898-3.456c-1.607-2.122-4.056-2.763-7.348-1.923l-8.065 2.16-.173-7.643 27.9-7.476.033 6.289z"/>
        <circle cx="461.5" cy="84.863" r="8.5" fill="#E1F6F0" stroke="#B9EBDB" stroke-width="3"/>
        <circle cx="485.5" cy="89.863" r="8.5" fill="#E1F6F0" stroke="#B9EBDB" stroke-width="3"/>
        <path stroke="#B9EBDB" stroke-width="3" d="M469 86.565c3.435-2.263 6.101-1.33 8 2.798"/>
    </g>
</svg>
