<?xml version="1.0" encoding="UTF-8" standalone="no"?>
<svg
   xmlns:dc="http://purl.org/dc/elements/1.1/"
   xmlns:cc="http://creativecommons.org/ns#"
   xmlns:rdf="http://www.w3.org/1999/02/22-rdf-syntax-ns#"
   xmlns:svg="http://www.w3.org/2000/svg"
   xmlns="http://www.w3.org/2000/svg"
   style="isolation:isolate"
   viewBox="0 0 270 252.88656"
   width="270pt"
   height="252.88657pt"
   version="1.1"
   id="svg342">
  <metadata
     id="metadata346">
    <rdf:RDF>
      <cc:Work
         rdf:about="">
        <dc:format>image/svg+xml</dc:format>
        <dc:type
           rdf:resource="http://purl.org/dc/dcmitype/StillImage" />
        <dc:title></dc:title>
      </cc:Work>
    </rdf:RDF>
  </metadata>
  <defs
     id="defs182">
    <clipPath
       id="_clipPath_TFzjQrSdvdlKvaZxbYomq8lHo6lND1FY">
      <rect
         y="0"
         x="0"
         width="360"
         height="337.18201"
         id="rect179" />
    </clipPath>
  </defs>
  <g
     transform="scale(0.75000016)"
     clip-path="url(#_clipPath_TFzjQrSdvdlKvaZxbYomq8lHo6lND1FY)"
     id="g340">
    <g
       id="g338">
      <path
         style="fill:#f69998"
         d="m 308.143,311.761 c 0,4.428 -3.586,8.013 -8.008,8.013 H 81.979 c -4.423,0 -8.008,-3.585 -8.008,-8.013 V 29.335 c 0,-4.423 3.585,-8.008 8.008,-8.008 h 218.156 c 4.422,0 8.008,3.585 8.008,8.008 z"
         id="path184" />
      <path
         style="fill:#fabdbc"
         d="m 308.143,301.889 c 0,4.277 -3.586,7.738 -8.008,7.738 H 81.979 c -4.423,0 -8.008,-3.461 -8.008,-7.738 V 29.067 c 0,-4.278 3.585,-7.74 8.008,-7.74 h 218.156 c 4.422,0 8.008,3.462 8.008,7.74 z"
         id="path186" />
      <path
         style="fill:#fff2f3"
         d="M 87.569,38.816 H 294.545 V 292.557 H 87.569 Z"
         id="path188" />
      <path
         style="fill:#f69998"
         d="m 256.967,23.835 c 0,-6.549 -5.306,-11.856 -11.851,-11.856 H 136.998 c -6.545,0 -11.851,5.307 -11.851,11.856 v 20.871 h 131.82 z"
         id="path190" />
      <path
         style="fill:#fabdbc"
         d="m 209.431,18.38 c 0,10.151 -8.223,18.383 -18.374,18.383 -10.147,0 -18.374,-8.232 -18.374,-18.383 0,-10.153 8.227,-18.38 18.374,-18.38 10.151,0 18.374,8.227 18.374,18.38 z"
         id="path192" />
      <path
         style="fill:#f37675"
         d="m 196.685,18.872 c 0,3.114 -2.519,5.633 -5.628,5.633 -3.109,0 -5.628,-2.519 -5.628,-5.633 0,-3.109 2.519,-5.628 5.628,-5.628 3.109,0 5.628,2.519 5.628,5.628 z"
         id="path194" />
      <path
         style="fill:#fccecf"
         d="m 246.091,188.586 c 0,1.196 -0.813,2.176 -1.805,2.176 H 135.647 c -0.992,0 -1.806,-0.98 -1.806,-2.176 v -2.063 c 0,-1.196 0.814,-2.176 1.806,-2.176 h 108.639 c 0.992,0 1.805,0.98 1.805,2.176 z"
         id="path196" />
      <path
         style="fill:#fccecf"
         d="m 246.772,258.392 c 0,1.197 -0.814,2.171 -1.811,2.171 H 136.327 c -0.996,0 -1.811,-0.974 -1.811,-2.171 v -2.067 c 0,-1.195 0.815,-2.171 1.811,-2.171 h 108.634 c 0.997,0 1.811,0.976 1.811,2.171 z"
         id="path198" />
      <path
         style="fill:#fccecf"
         d="m 246.772,223.597 c 0,1.195 -0.814,2.171 -1.811,2.171 H 136.327 c -0.996,0 -1.811,-0.976 -1.811,-2.171 v -2.069 c 0,-1.195 0.815,-2.171 1.811,-2.171 h 108.634 c 0.997,0 1.811,0.976 1.811,2.171 z"
         id="path200" />
      <path
         style="fill:#6e6f73"
         d="m 155.57,93.524 -5.43,19.488 c 0,0 -0.573,2.128 0.996,2.097 1.572,-0.039 23.515,0 23.515,0 0,0 0.894,0 1.361,-1.121 0.461,-1.12 5.997,-20.534 5.997,-20.534 l -4.325,0.033 -4.953,17.638 h -17.864 l 5.022,-17.638 -4.314,0.037 z m 29.388,-0.037 h 24.403 c 0,0 1.645,0.428 1.072,2.09 -0.568,1.667 -2.654,9.187 -2.654,9.187 0,0 -0.76,1.715 -2.32,1.715 h -19.998 l -2.321,8.635 -4.32,-0.005 3.645,-12.725 h 21.889 l 1.346,-4.696 h -21.937 z m 29.447,-0.011 h 4.341 l -6.014,21.541 h -4.395 z"
         id="path202" />
      <path
         style="fill:#008d42"
         d="m 226.4,93.734 5.275,10.547 -11.171,10.446 z"
         id="path204" />
      <path
         style="fill:#f57a00"
         d="m 222.45,93.734 5.274,10.547 -11.17,10.446 z"
         id="path206" />
      <line
         style="vector-effect:non-scaling-stroke;stroke:#a2a2a2;stroke-width:1.37600005;stroke-linecap:round;stroke-linejoin:bevel;stroke-miterlimit:4"
         x1="75.449997"
         y1="238.862"
         x2="44.314999"
         y2="238.862"
         stroke-miterlimit="4"
         id="line208" />
      <line
         style="vector-effect:non-scaling-stroke;stroke:#a2a2a2;stroke-width:1.37600005;stroke-linecap:round;stroke-linejoin:bevel;stroke-miterlimit:4"
         x1="76.532997"
         y1="257.98999"
         x2="45.393002"
         y2="257.98999"
         stroke-miterlimit="4"
         id="line210" />
      <line
         style="vector-effect:non-scaling-stroke;stroke:#a2a2a2;stroke-width:1.37600005;stroke-linecap:round;stroke-linejoin:bevel;stroke-miterlimit:4"
         x1="77.230003"
         y1="277.121"
         x2="46.084"
         y2="277.121"
         stroke-miterlimit="4"
         id="line212" />
      <line
         style="vector-effect:non-scaling-stroke;stroke:#a2a2a2;stroke-width:1.37600005;stroke-linecap:round;stroke-linejoin:bevel;stroke-miterlimit:4"
         x1="79.063004"
         y1="296.24899"
         x2="47.923"
         y2="296.24899"
         stroke-miterlimit="4"
         id="line214" />
      <line
         style="vector-effect:non-scaling-stroke;stroke:#a2a2a2;stroke-width:1.37600005;stroke-linecap:round;stroke-linejoin:bevel;stroke-miterlimit:4"
         x1="80.109001"
         y1="315.379"
         x2="48.966999"
         y2="315.379"
         stroke-miterlimit="4"
         id="line216" />
      <path
         style="vector-effect:non-scaling-stroke;fill:none;stroke:#a2a2a2;stroke-width:1.37600005;stroke-linecap:round;stroke-linejoin:bevel;stroke-miterlimit:4"
         d="m 74.056,219.851 6.132,83.463 2.263,30.814"
         stroke-miterlimit="4"
         id="path218" />
      <path
         style="vector-effect:non-scaling-stroke;fill:none;stroke:#a2a2a2;stroke-width:1.37600005;stroke-linecap:round;stroke-linejoin:bevel;stroke-miterlimit:4"
         d="m 42.916,219.851 1.999,27.195 6.394,87.082"
         stroke-miterlimit="4"
         id="path220" />
      <path
         style="vector-effect:non-scaling-stroke;fill:none;stroke:#a2a2a2;stroke-width:1.37600005;stroke-linecap:round;stroke-linejoin:bevel;stroke-miterlimit:4"
         d="M 55.388,334.128 74.056,219.851 H 42.685 l -13.693,83.832 -4.974,30.445"
         stroke-miterlimit="4"
         id="path222" />
      <path
         style="fill:#a2a2a2"
         d="m 70.948,238.862 c -2.336,0.916 -3.511,0.916 -3.511,0 0,-0.917 -9.282,-0.917 -27.855,0"
         id="path224" />
      <path
         style="vector-effect:non-scaling-stroke;fill:none;stroke:#a2a2a2;stroke-width:1.37600005;stroke-linecap:round;stroke-linejoin:miter;stroke-miterlimit:4"
         d="m 70.948,238.862 c -2.336,0.916 -3.511,0.916 -3.511,0 0,-0.917 -9.282,-0.917 -27.855,0"
         stroke-miterlimit="4"
         id="path226" />
      <line
         style="vector-effect:non-scaling-stroke;stroke:#a2a2a2;stroke-width:1.37600005;stroke-linecap:round;stroke-linejoin:miter;stroke-miterlimit:4"
         x1="67.742996"
         y1="257.98999"
         x2="36.715"
         y2="257.98999"
         stroke-miterlimit="4"
         id="line228" />
      <line
         style="vector-effect:non-scaling-stroke;stroke:#a2a2a2;stroke-width:1.37600005;stroke-linecap:round;stroke-linejoin:miter;stroke-miterlimit:4"
         x1="64.538002"
         y1="277.121"
         x2="33.771999"
         y2="277.121"
         stroke-miterlimit="4"
         id="line230" />
      <line
         style="vector-effect:non-scaling-stroke;stroke:#a2a2a2;stroke-width:1.37600005;stroke-linecap:round;stroke-linejoin:miter;stroke-miterlimit:4"
         x1="61.327"
         y1="296.24899"
         x2="30.844999"
         y2="296.24899"
         stroke-miterlimit="4"
         id="line232" />
      <line
         style="vector-effect:non-scaling-stroke;stroke:#a2a2a2;stroke-width:1.37600005;stroke-linecap:round;stroke-linejoin:miter;stroke-miterlimit:4"
         x1="58.122002"
         y1="315.379"
         x2="27.709999"
         y2="315.379"
         stroke-miterlimit="4"
         id="line234" />
      <path
         style="fill:#fcdfe0"
         d="m 355.219,320.958 -4.782,-6.405 -4.819,3.822 4.589,6.624 z"
         id="path236" />
      <path
         style="fill:#8b8b8b"
         d="m 355.363,320.497 4.315,3.988 c 0.519,0.665 0.397,1.63 -0.269,2.15 l -12.251,9.529 c -0.564,0.439 -1.378,0.332 -1.818,-0.23 -0.246,-0.316 -0.332,-0.729 -0.225,-1.12 l 4.127,-9.557 z"
         id="path238" />
      <path
         style="fill:#f69998"
         d="m 312.833,261.089 11.652,32.728 20.711,28.455 10.103,-5.815 -17.334,-25.418 -8.849,-30.074 z"
         id="path240" />
      <path
         style="fill:#fcdfe0"
         d="m 303.989,330.237 2.931,-7.44 -5.787,-2.091 -3.222,7.386 z"
         id="path242" />
      <path
         style="fill:#8b8b8b"
         d="m 304.509,330.355 -0.986,5.793 c -0.279,0.798 -1.153,1.228 -1.951,0.949 l -14.665,-5.081 c -0.676,-0.236 -1.034,-0.97 -0.799,-1.646 0.134,-0.38 0.435,-0.681 0.815,-0.803 l 10.259,-1.748 z"
         id="path244" />
      <path
         style="fill:#f69998"
         d="m 312.833,261.089 4.603,5.601 -10.199,23.042 -10.254,33.456 11.68,3.956 11.384,-34.7 15.903,-31.44 -5.479,0.064 z"
         id="path246" />
      <path
         style="fill:#fabdbc"
         d="m 317.635,223.65 c 0,0 -0.739,0.107 -1.731,0.616 -2.422,1.26 -3.838,3.86 -3.774,6.588 l -0.053,32.508 c 0,0 11.106,3.51 23.873,-1.602 l -0.112,-32.428 c 0.015,-0.396 1.13,-3.275 0.83,-3.543 -0.804,-0.713 -1.859,-1.715 -3.548,-2.08 -0.225,-0.042 -0.456,-0.059 -0.681,-0.059 z"
         id="path248" />
      <path
         style="fill:#fabdbc"
         d="m 315.068,233.877 -2.53,-5.644 -8.029,20.968 15.721,-3.811 z"
         id="path250" />
      <path
         style="fill:#fcdfe0"
         d="m 320.283,219.148 6.695,-4.631 1.264,0.831 -0.107,8.271 c -0.026,2.159 -1.784,3.901 -3.945,3.901 -2.202,0 -3.977,-1.795 -3.956,-3.993 z"
         id="path252" />
      <path
         style="fill:#fcdfe0"
         d="m 320.245,222.605 c 0,0 2.873,0.064 4.625,-0.917 0.559,-0.31 1.035,-0.701 1.422,-1.173 1.201,-1.459 1.586,-3.677 1.157,-6.652 l -2.133,1.49 -5.027,4.052 z"
         id="path254" />
      <path
         style="fill:#f69998"
         d="m 322.078,226.819 4.208,4.206 3.918,-7.406 h -2.064 z"
         id="path256" />
      <path
         style="fill:#f69998"
         d="m 322.078,226.819 -3.703,3.36 0.418,-6.529 h 1.446 z"
         id="path258" />
      <path
         style="fill:#fcdfe0"
         d="m 314.124,211.81 c -0.037,1.287 0.976,2.364 2.263,2.402 1.291,0.038 2.362,-0.976 2.401,-2.267 0.037,-1.287 -0.97,-2.359 -2.263,-2.396 -1.286,-0.042 -2.363,0.97 -2.401,2.261 z"
         id="path260" />
      <path
         style="fill:#8b8b8b"
         d="m 315.416,203.771 c 0,0 -4.492,6.962 2.289,7.434 l 1.693,-3.64 -1.49,-3.805 z"
         id="path262" />
      <path
         style="fill:#fcdfe0"
         d="m 321.661,221.17 0.24,0.004 c 3.576,0.108 6.562,-2.706 6.669,-6.287 l 0.214,-8.324 c 0.026,-0.927 -0.703,-1.704 -1.625,-1.731 l -8.526,-0.246 c -1.652,-0.053 -3.034,1.249 -3.083,2.905 l -0.176,7.005 c -0.108,3.581 2.706,6.565 6.287,6.674 z"
         id="path264" />
      <path
         style="fill:#8b8b8b"
         d="m 314.323,207.854 c -0.52,2.837 -4.943,-3.965 -1.136,-7.985 1.881,-1.988 3.672,-0.917 5.724,-0.026 0.804,-0.365 3.108,-1.357 5.644,-1.239 2.556,0.123 4.454,1.694 5.531,3.778 v -0.005 c 0,0 2.772,0.092 4.004,3.152 2.246,5.553 -5.885,12.649 -5.885,12.649 l 0.005,-6.989 c -3.227,-0.236 -3.318,-3.136 -3.05,-4.952 -5.155,1.071 -9.61,0.509 -9.61,0.509 0,0 0.333,0.99 -0.617,0.118 l -0.439,-0.338 c -0.697,-0.295 -0.086,0.863 -0.171,1.328 z"
         id="path266" />
      <path
         style="fill:#fcdfe0"
         d="m 327.111,212.406 c -0.042,1.291 0.976,2.368 2.263,2.407 1.285,0.037 2.362,-0.976 2.401,-2.269 0.037,-1.285 -0.976,-2.362 -2.263,-2.401 -1.291,-0.037 -2.363,0.976 -2.401,2.263 z"
         id="path268" />
      <path
         style="fill:#fba6a4"
         d="m 319.356,235.769 c -18.186,0 -32.931,14.745 -32.931,32.931 0,18.186 14.745,32.931 32.931,32.931 18.186,0 32.931,-14.745 32.931,-32.931 0,-18.186 -14.745,-32.931 -32.931,-32.931 z"
         id="path270" />
      <path
         style="fill:#fdeded"
         d="m 319.693,243.316 c 14.209,0 25.728,11.519 25.728,25.727 0,14.204 -11.519,25.727 -25.728,25.727 -14.209,0 -25.727,-11.523 -25.727,-25.727 0,-14.208 11.518,-25.727 25.727,-25.727 z"
         id="path272" />
      <path
         style="fill:#fccecf"
         d="m 338.158,259.84 c 1.887,1.522 1.769,3.618 0.247,5.51 -1.523,1.887 -3.876,2.846 -5.763,1.325 -1.887,-1.523 -2.18,-4.288 -0.659,-6.175 1.522,-1.887 4.288,-2.182 6.175,-0.66 z"
         id="path274" />
      <path
         style="fill:#fbcece"
         d="m 342.022,259.004 -3.183,3.951 c -0.836,1.029 -2.359,1.195 -3.394,0.363 -1.029,-0.835 -1.189,-2.362 -0.358,-3.392 l 3.184,-3.95 c 0.835,-1.029 2.358,-1.195 3.393,-0.359 1.029,0.83 1.195,2.358 0.358,3.387 z"
         id="path276" />
      <path
         style="fill:#fabdbc"
         d="m 343.213,260.853 -6.931,-3.929 8.222,-11.786 -12.891,-9.771 c -2.036,-1.693 -3.521,-6.051 0.236,-9.031 1.394,-1.389 5.049,-0.568 6.432,0.826 l 16.942,13.828 c 0.987,0.986 1.304,2.46 0.81,3.768 z"
         id="path278" />
      <path
         style="fill:#f69998"
         d="m 327.856,263.425 c -0.107,-0.107 -0.241,-0.16 -0.413,-0.16 h -3.054 c -0.205,-0.987 -0.585,-1.848 -1.147,-2.573 h 4.17 c 0.166,0 0.3,-0.053 0.413,-0.16 0.101,-0.107 0.155,-0.247 0.155,-0.413 v -1.823 c 0,-0.171 -0.054,-0.306 -0.155,-0.413 -0.113,-0.107 -0.247,-0.16 -0.413,-0.16 h -14.88 c -0.171,0 -0.304,0.053 -0.413,0.16 -0.107,0.107 -0.16,0.242 -0.16,0.413 v 2.376 c 0,0.155 0.053,0.289 0.171,0.402 0.113,0.116 0.247,0.171 0.402,0.171 h 2.589 c 2.52,0 4.117,0.675 4.797,2.02 h -7.386 c -0.171,0 -0.304,0.053 -0.413,0.16 -0.107,0.109 -0.16,0.247 -0.16,0.413 v 1.828 c 0,0.166 0.053,0.301 0.16,0.408 0.109,0.107 0.247,0.16 0.413,0.16 h 7.633 c -0.263,0.981 -0.874,1.726 -1.833,2.235 -0.959,0.515 -2.224,0.773 -3.801,0.773 h -1.999 c -0.155,0 -0.289,0.059 -0.402,0.171 -0.118,0.113 -0.171,0.246 -0.171,0.402 v 2.273 c 0,0.155 0.053,0.284 0.16,0.391 2.289,2.432 5.258,5.837 8.909,10.215 0.107,0.146 0.252,0.216 0.445,0.216 h 3.489 c 0.246,0 0.423,-0.109 0.515,-0.323 0.118,-0.214 0.096,-0.417 -0.07,-0.605 -3.478,-4.271 -6.217,-7.467 -8.211,-9.588 2.031,-0.242 3.676,-0.896 4.941,-1.974 1.26,-1.071 2.032,-2.465 2.305,-4.186 h 3.001 c 0.172,0 0.306,-0.053 0.413,-0.16 0.107,-0.107 0.161,-0.242 0.161,-0.408 v -1.828 c 0,-0.166 -0.054,-0.304 -0.161,-0.413 z"
         id="path280" />
      <path
         style="fill:#9b9b9b"
         d="m 72.132,180.193 c 0,0 3.768,12.633 5.002,24.607 0.267,2.599 -0.655,5.177 -2.547,6.973 l -33.536,30.991 -5.446,-8.71 21.53,-24.409 4.53,-26.247 z"
         id="path282" />
      <path
         style="fill:#8b8b8b"
         d="m 36.21,234.987 -5.557,2.32 c -0.739,0.461 -0.96,1.437 -0.499,2.171 l 8.452,13.496 c 0.392,0.622 1.212,0.81 1.833,0.424 0.349,-0.22 0.574,-0.59 0.612,-1.003 l -0.616,-10.666 z"
         id="path284" />
      <path
         style="fill:#a2a2a2"
         d="m 66.118,181.838 2.37,30.005 c 0.08,1.002 0.021,2.015 -0.171,3.007 l -6.652,34.255 H 50.671 l 2.021,-34.309 -3.596,-30.701 z"
         id="path286" />
      <path
         style="fill:#8b8b8b"
         d="m 51.759,249.083 -0.985,5.944 c 0,0.874 0.701,1.576 1.57,1.576 h 15.93 c 0.729,0 1.323,-0.595 1.323,-1.324 0,-0.413 -0.192,-0.804 -0.519,-1.056 l -9.365,-5.14 z"
         id="path288" />
      <path
         style="fill:#fcdfe0"
         d="m 71.131,102.701 c 0,2.764 -2.246,5.011 -5.013,5.011 -2.764,0 -5.011,-2.247 -5.011,-5.011 0,-2.767 2.247,-5.013 5.011,-5.013 2.767,0 5.013,2.246 5.013,5.013 z"
         id="path290" />
      <path
         style="fill:#fcdfe0"
         d="m 66.118,106.114 2.713,7.697 5.596,-2.492 -4.331,-8.618 z"
         id="path292" />
      <path
         style="fill:#f69998"
         d="m 63.573,143.092 7.932,-13.973 -6.464,-18.739 9.804,-3.864 7.294,21.75 c 0.391,1.877 0.146,3.828 -0.702,5.547 L 68.52,157.767 Z"
         id="path294" />
      <path
         style="fill:#f69998"
         d="m 44.744,148.147 -22.871,0.675 -1.212,10.381 24.179,0.933 c 2.642,0.07 5.023,-1.608 5.848,-4.122 1.307,-3.976 -1.758,-8.039 -5.944,-7.867 z"
         id="path296" />
      <path
         style="fill:#fcdfe0"
         d="m 35.091,128.738 c -1.978,1.935 -5.146,1.903 -7.081,-0.074 -1.934,-1.984 -1.897,-5.151 0.08,-7.091 1.979,-1.936 5.146,-1.898 7.082,0.079 1.934,1.979 1.896,5.151 -0.081,7.086 z"
         id="path298" />
      <path
         style="fill:#fcdfe0"
         d="m 28.01,127.543 -3.607,7.321 5.692,2.258 3.136,-9.118 z"
         id="path300" />
      <path
         style="fill:#f69998"
         d="m 32.839,133.321 -6.833,22.201 c -0.756,2.46 -3.194,3.998 -5.741,3.622 -3.392,-0.492 -5.391,-4.067 -4.041,-7.213 l 9.02,-21.059 z"
         id="path302" />
      <path
         style="fill:#f69998"
         d="m 54.042,145.847 -9.658,2.294 2.916,36.918 c 0,0 7.483,6.492 26.66,-4.003 l -7.156,-39.904 -7.434,4.175 z"
         id="path304" />
      <path
         style="fill:#f7cfd0"
         d="m 51.744,146.833 -1.453,-9.084 7.643,-1.223 1.447,9.09 c 0.338,2.107 -0.439,3.982 -2.55,4.32 l -0.66,0.108 c -2.112,0.338 -4.095,-1.099 -4.427,-3.211 z"
         id="path306" />
      <path
         style="fill:#fbc7c9"
         d="m 49.873,136.917 c 0,0 1.442,9.256 9.497,8.41 l -0.905,-5.29 z"
         id="path308" />
      <path
         style="fill:#fcdfe0"
         d="m 66.07,131.156 c 0.279,1.377 -0.61,2.716 -1.988,3 -1.377,0.28 -2.718,-0.61 -2.997,-1.988 -0.284,-1.377 0.607,-2.717 1.985,-2.995 1.377,-0.284 2.716,0.605 3,1.983 z"
         id="path310" />
      <path
         style="fill:#fcdfe0"
         d="m 59.071,143.204 -0.28,0.054 c -4.078,0.831 -8.061,-1.806 -8.891,-5.885 l -1.693,-8.346 c -0.221,-1.055 0.465,-2.084 1.521,-2.299 l 9.723,-1.983 c 0.804,-0.16 1.544,-0.064 2.278,0.312 0.981,0.498 1.614,1.328 1.833,2.41 l 1.394,6.84 c 0.83,4.084 -1.807,8.067 -5.885,8.897 z"
         id="path312" />
      <path
         style="fill:#fcdfe0"
         d="m 50.484,134.49 c 0.563,1.485 -0.188,3.141 -1.672,3.698 -1.485,0.562 -3.141,-0.188 -3.698,-1.673 -0.558,-1.485 0.187,-3.141 1.671,-3.698 1.485,-0.562 3.141,0.188 3.699,1.673 z"
         id="path314" />
      <path
         style="fill:#fba6a4"
         d="M 34.447,55.008 C 15.425,55.008 0,70.434 0,89.461 c 0,19.027 15.425,34.454 34.447,34.454 19.023,0 34.443,-15.427 34.443,-34.454 0,-19.027 -15.42,-34.453 -34.443,-34.453 z"
         id="path316" />
      <path
         style="fill:#fdeded"
         d="m 34.447,62.437 c 14.916,0 27.014,12.097 27.014,27.024 0,14.922 -12.098,27.025 -27.014,27.025 -14.922,0 -27.013,-12.103 -27.013,-27.025 0,-14.927 12.091,-27.024 27.013,-27.024 z"
         id="path318" />
      <path
         style="fill:#f69998"
         d="m 42.659,84.948 c -0.108,-0.107 -0.247,-0.16 -0.413,-0.16 h -3.061 c -0.198,-0.993 -0.583,-1.85 -1.142,-2.579 h 4.165 c 0.167,0 0.306,-0.053 0.413,-0.16 0.107,-0.107 0.16,-0.242 0.16,-0.413 v -1.822 c 0,-0.166 -0.053,-0.306 -0.16,-0.413 C 42.514,79.294 42.375,79.24 42.208,79.24 H 27.33 c -0.166,0 -0.301,0.054 -0.413,0.161 -0.102,0.107 -0.161,0.247 -0.161,0.413 v 2.379 c 0,0.156 0.059,0.289 0.172,0.402 0.112,0.112 0.245,0.171 0.402,0.171 h 2.593 c 2.514,0 4.111,0.671 4.793,2.022 H 27.33 c -0.166,0 -0.301,0.053 -0.413,0.16 -0.102,0.107 -0.161,0.242 -0.161,0.408 v 1.827 c 0,0.166 0.059,0.306 0.161,0.413 0.112,0.107 0.247,0.161 0.413,0.161 h 7.637 c -0.262,0.975 -0.874,1.72 -1.833,2.235 -0.959,0.515 -2.23,0.767 -3.799,0.767 H 27.33 c -0.157,0 -0.29,0.059 -0.402,0.172 -0.113,0.112 -0.172,0.245 -0.172,0.402 v 2.272 c 0,0.155 0.059,0.289 0.161,0.396 2.294,2.428 5.258,5.837 8.908,10.21 0.107,0.146 0.258,0.214 0.444,0.214 h 3.49 c 0.252,0 0.424,-0.107 0.52,-0.321 0.118,-0.214 0.097,-0.418 -0.07,-0.605 -3.484,-4.273 -6.223,-7.467 -8.211,-9.59 2.027,-0.24 3.672,-0.894 4.937,-1.966 1.265,-1.077 2.031,-2.471 2.304,-4.186 h 3.007 c 0.166,0 0.305,-0.054 0.413,-0.161 0.107,-0.107 0.161,-0.247 0.161,-0.413 v -1.827 c 0,-0.166 -0.054,-0.301 -0.161,-0.408 z"
         id="path320" />
      <path
         style="fill:#8b8b8b"
         d="m 62.777,127.657 c 0.469,2.557 4.459,-3.572 1.026,-7.199 -1.696,-1.791 -3.309,-0.827 -5.159,-0.021 -0.726,-0.329 -2.802,-1.226 -5.087,-1.118 -2.306,0.109 -4.02,1.528 -4.989,3.405 l -0.002,-0.005 c 0,0 -2.496,0.085 -3.61,2.842 -2.024,5.009 5.306,11.403 5.306,11.403 l -0.005,-6.302 c 2.912,-0.208 2.993,-2.824 2.751,-4.463 4.647,0.969 8.665,0.46 8.665,0.46 0,0 -0.3,0.891 0.556,0.105 l 0.394,-0.303 c 0.632,-0.268 0.078,0.78 0.154,1.196 z"
         id="path322" />
      <g
         id="g330">
        <path
           style="fill:#f37675;fill-rule:evenodd"
           d="m 61.634,139.005 c -1.237,0.313 -3.095,0.32 -4.39,0.03 1.051,1.101 3.365,1.165 4.39,-0.03 z"
           id="path324" />
        <path
           style="fill:#8b8b8b;fill-rule:evenodd"
           d="m 55.588,134.083 c 0.043,0.453 -0.367,0.847 -0.917,0.879 -0.55,0.033 -1.033,-0.308 -1.077,-0.761 -0.044,-0.454 0.367,-0.848 0.917,-0.88 0.551,-0.032 1.032,0.309 1.077,0.762 z"
           id="path326" />
        <path
           style="fill:#8b8b8b;fill-rule:evenodd"
           d="m 64.124,132.086 -2.062,-1.067 c 0.353,-0.467 1.1,-0.606 1.67,-0.311 0.569,0.295 0.744,0.912 0.392,1.378 z m -10.613,0 2.06,-1.067 c -0.352,-0.467 -1.101,-0.606 -1.671,-0.311 -0.567,0.295 -0.742,0.912 -0.389,1.378 z m 10.029,1.723 c 0.044,0.453 -0.367,0.846 -0.917,0.88 -0.55,0.032 -1.033,-0.309 -1.076,-0.763 -0.044,-0.453 0.365,-0.847 0.915,-0.879 0.551,-0.034 1.033,0.307 1.078,0.762 z"
           id="path328" />
      </g>
      <path
         style="fill:#f37675;fill-rule:evenodd"
         d="m 322.538,218.387 c -1.172,0.296 -2.938,0.303 -4.166,0.027 0.998,1.045 3.193,1.107 4.166,-0.027 z"
         id="path332" />
      <path
         style="fill:#8b8b8b;fill-rule:evenodd"
         d="m 322.331,214.101 c 0.037,0.425 0.486,0.731 1.001,0.685 0.516,-0.047 0.903,-0.427 0.866,-0.853 -0.038,-0.426 -0.485,-0.732 -1,-0.686 -0.517,0.047 -0.904,0.428 -0.867,0.854 z m 0.619,-3.137 2.253,0.241 c 0.092,-0.512 -0.337,-0.981 -0.958,-1.047 -0.623,-0.068 -1.202,0.294 -1.295,0.806 z"
         id="path334" />
      <path
         style="fill:#8b8b8b;fill-rule:evenodd"
         d="m 315.668,211.131 2.169,-0.624 c -0.196,-0.486 -0.84,-0.74 -1.44,-0.567 -0.6,0.172 -0.926,0.705 -0.729,1.191 z m 0.744,2.479 c 0,0.426 0.418,0.77 0.937,0.769 0.517,-0.001 0.938,-0.346 0.938,-0.772 0,-0.427 -0.421,-0.772 -0.938,-0.772 -0.519,0.002 -0.937,0.348 -0.937,0.775 z"
         id="path336" />
    </g>
  </g>
</svg>
