<svg width="688" height="557" fill="none" xmlns="http://www.w3.org/2000/svg"><path fill="#E5E5E5" d="M0 0h688v557H0z"/><path fill="#fff" d="M0 0h688v557H0z"/><path d="M50.287 172c-.324-1.79-1.756-2.847-3.512-2.847-2.233 0-3.852 1.722-3.852 4.483 0 2.762 1.62 4.483 3.852 4.483 1.756 0 3.188-1.057 3.512-2.846H49.23c-.256 1.21-1.296 1.858-2.455 1.858-1.585 0-2.83-1.228-2.83-3.495 0-2.267 1.245-3.494 2.83-3.494 1.16 0 2.2.648 2.455 1.858h1.057zm5.696 3.324c0 1.227-.938 1.79-1.688 1.79-.835 0-1.431-.614-1.431-1.569v-4.09h-1.006v4.159c0 1.67.886 2.471 2.114 2.471.988 0 1.636-.528 1.943-1.193h.068V178h1.006v-6.545h-1.006v3.869zm7.484-2.404c-.315-.929-1.023-1.551-2.318-1.551-1.38 0-2.404.784-2.404 1.892 0 .904.537 1.509 1.739 1.79l1.09.256c.661.153.973.469.973.92 0 .563-.597 1.023-1.535 1.023-.822 0-1.338-.354-1.517-1.057l-.954.239c.234 1.112 1.15 1.704 2.489 1.704 1.52 0 2.556-.831 2.556-1.96 0-.912-.57-1.487-1.738-1.773l-.972-.238c-.776-.192-1.125-.452-1.125-.955 0-.562.597-.971 1.398-.971.878 0 1.24.485 1.415.937l.903-.256zm4.48-1.465h-1.398v-1.569h-1.006v1.569h-.988v.852h.988v4.091c0 1.142.92 1.687 1.773 1.687.375 0 .614-.068.75-.119l-.204-.904c-.086.018-.222.052-.444.052-.443 0-.869-.137-.869-.989v-3.818h1.398v-.852zm4.101 6.681c1.773 0 2.966-1.346 2.966-3.375 0-2.045-1.193-3.392-2.966-3.392-1.772 0-2.966 1.347-2.966 3.392 0 2.029 1.194 3.375 2.966 3.375zm0-.903c-1.346 0-1.96-1.159-1.96-2.472 0-1.312.614-2.488 1.96-2.488 1.347 0 1.96 1.176 1.96 2.488 0 1.313-.613 2.472-1.96 2.472zm4.501.767h1.006v-4.091c0-.959.699-1.636 1.483-1.636.763 0 1.296.498 1.296 1.244V178h1.022v-4.261c0-.844.529-1.466 1.449-1.466.716 0 1.33.379 1.33 1.346V178h1.005v-4.381c0-1.538-.826-2.25-1.994-2.25-.938 0-1.624.431-1.96 1.108h-.069c-.323-.699-.894-1.108-1.755-1.108-.852 0-1.483.409-1.756 1.108h-.085v-1.022h-.972V178zm13.174.136c1.33 0 2.302-.664 2.608-1.653l-.971-.273c-.256.682-.848 1.023-1.637 1.023-1.18 0-1.994-.763-2.04-2.165h4.75v-.426c0-2.437-1.448-3.273-2.812-3.273-1.773 0-2.949 1.398-2.949 3.409 0 2.012 1.16 3.358 3.051 3.358zm-2.04-3.937c.067-1.019.787-1.926 1.938-1.926 1.091 0 1.79.818 1.79 1.926h-3.729zm6.28 3.801h1.006v-4.142c0-.882.699-1.534 1.654-1.534.25 0 .438.047.58.119l.34-.852c-.205-.145-.473-.239-.835-.239-.793 0-1.47.443-1.705 1.091h-.068v-.988h-.972V178zm12.617-5.08c-.315-.929-1.022-1.551-2.318-1.551-1.381 0-2.403.784-2.403 1.892 0 .904.537 1.509 1.738 1.79l1.091.256c.661.153.972.469.972.92 0 .563-.597 1.023-1.534 1.023-.823 0-1.338-.354-1.517-1.057l-.955.239c.234 1.112 1.151 1.704 2.489 1.704 1.521 0 2.557-.831 2.557-1.96 0-.912-.571-1.487-1.739-1.773l-.972-.238c-.775-.192-1.125-.452-1.125-.955 0-.562.597-.971 1.398-.971.878 0 1.24.485 1.415.937l.903-.256zm4.378 5.216c1.329 0 2.301-.664 2.608-1.653l-.972-.273c-.256.682-.848 1.023-1.636 1.023-1.181 0-1.995-.763-2.041-2.165h4.751v-.426c0-2.437-1.449-3.273-2.813-3.273-1.772 0-2.948 1.398-2.948 3.409 0 2.012 1.159 3.358 3.051 3.358zm-2.041-3.937c.068-1.019.788-1.926 1.938-1.926 1.091 0 1.79.818 1.79 1.926h-3.728zm7.286-4.926h-1.005V178h1.005v-8.727zm4.587 8.863c1.329 0 2.301-.664 2.608-1.653l-.972-.273c-.256.682-.848 1.023-1.636 1.023-1.181 0-1.995-.763-2.041-2.165h4.751v-.426c0-2.437-1.449-3.273-2.812-3.273-1.773 0-2.949 1.398-2.949 3.409 0 2.012 1.159 3.358 3.051 3.358zm-2.041-3.937c.068-1.019.788-1.926 1.939-1.926 1.09 0 1.789.818 1.789 1.926h-3.728zm8.94 3.937c1.449 0 2.403-.886 2.574-2.045h-1.006c-.187.716-.784 1.142-1.568 1.142-1.193 0-1.96-.989-1.96-2.506 0-1.483.784-2.454 1.96-2.454.886 0 1.415.545 1.568 1.142h1.006c-.171-1.227-1.21-2.046-2.591-2.046-1.773 0-2.949 1.398-2.949 3.392 0 1.961 1.125 3.375 2.966 3.375zm6.891-6.681h-1.398v-1.569h-1.006v1.569h-.988v.852h.988v4.091c0 1.142.921 1.687 1.773 1.687a2.1 2.1 0 00.75-.119l-.205-.904c-.085.018-.221.052-.443.052-.443 0-.869-.137-.869-.989v-3.818h1.398v-.852zm6.032 1.465c-.316-.929-1.023-1.551-2.319-1.551-1.38 0-2.403.784-2.403 1.892 0 .904.537 1.509 1.739 1.79l1.09.256c.661.153.972.469.972.92 0 .563-.597 1.023-1.534 1.023-.822 0-1.338-.354-1.517-1.057l-.955.239c.235 1.112 1.151 1.704 2.489 1.704 1.521 0 2.557-.831 2.557-1.96 0-.912-.571-1.487-1.739-1.773l-.971-.238c-.776-.192-1.125-.452-1.125-.955 0-.562.596-.971 1.397-.971.878 0 1.24.485 1.415.937l.904-.256zm10.871-3.647v5.778c0 1.364-1.091 2.114-2.335 2.114s-2.335-.75-2.335-2.114v-5.778h-1.057v5.778c0 1.96 1.551 3.102 3.392 3.102s3.392-1.142 3.392-3.102v-5.778h-1.057zm3.168 8.727h1.056v-3.188h1.909c2.033 0 2.949-1.235 2.949-2.778s-.916-2.761-2.966-2.761h-2.948V178zm1.056-4.125v-3.665h1.858c1.419 0 1.961.776 1.961 1.824s-.542 1.841-1.944 1.841h-1.875zm7.618-4.602h-1.057V178h1.057v-8.727zm7.283 8.88c1.142 0 1.739-.613 1.943-1.039h.052V178h1.005v-4.312c0-2.08-1.585-2.319-2.42-2.319-.989 0-2.114.341-2.625 1.534l.954.341c.222-.477.746-.988 1.705-.988.925 0 1.381.49 1.381 1.329v.034c0 .486-.495.443-1.688.597-1.214.158-2.54.426-2.54 1.926 0 1.278.989 2.011 2.233 2.011zm.154-.903c-.801 0-1.381-.358-1.381-1.057 0-.767.699-1.005 1.483-1.108.426-.051 1.568-.17 1.739-.375v.921c0 .818-.648 1.619-1.841 1.619zm9.318-4.33c-.315-.929-1.022-1.551-2.318-1.551-1.381 0-2.403.784-2.403 1.892 0 .904.537 1.509 1.738 1.79l1.091.256c.661.153.972.469.972.92 0 .563-.597 1.023-1.534 1.023-.823 0-1.338-.354-1.517-1.057l-.955.239c.234 1.112 1.151 1.704 2.489 1.704 1.521 0 2.557-.831 2.557-1.96 0-.912-.571-1.487-1.739-1.773l-.972-.238c-.775-.192-1.125-.452-1.125-.955 0-.562.597-.971 1.398-.971.878 0 1.24.485 1.415.937l.903-.256zM64.268 198.455h1.006v-3.461h.085c.222.358.648 1.142 1.91 1.142 1.635 0 2.777-1.312 2.777-3.392 0-2.062-1.142-3.375-2.795-3.375-1.278 0-1.67.784-1.892 1.125h-.12v-1.039h-.97v9zm.989-5.728c0-1.466.647-2.454 1.875-2.454 1.278 0 1.909 1.074 1.909 2.454 0 1.398-.648 2.506-1.91 2.506-1.21 0-1.874-1.023-1.874-2.506zm8.25 3.426c1.142 0 1.738-.613 1.943-1.039h.051V196h1.006v-4.312c0-2.08-1.586-2.319-2.42-2.319-.99 0-2.114.341-2.626 1.534l.955.341c.221-.477.746-.988 1.704-.988.925 0 1.381.49 1.381 1.329v.034c0 .486-.494.443-1.687.597-1.215.158-2.54.426-2.54 1.926 0 1.278.988 2.011 2.233 2.011zm.153-.903c-.801 0-1.38-.358-1.38-1.057 0-.767.698-1.005 1.482-1.108.427-.051 1.569-.17 1.74-.375v.921c0 .818-.649 1.619-1.842 1.619zm5.062 3.29c.92 0 1.55-.478 1.926-1.483l2.812-7.602h-1.09l-1.808 5.215h-.068l-1.806-5.215h-1.091l2.42 6.579-.221.614c-.354.98-.819 1.074-1.552.886l-.255.886c.102.052.392.12.733.12zm6.066-2.54h1.005v-4.091c0-.959.7-1.636 1.483-1.636.763 0 1.296.498 1.296 1.244V196h1.022v-4.261c0-.844.529-1.466 1.45-1.466.715 0 1.329.379 1.329 1.346V196h1.006v-4.381c0-1.538-.827-2.25-1.995-2.25-.937 0-1.623.431-1.96 1.108h-.068c-.324-.699-.895-1.108-1.756-1.108-.852 0-1.483.409-1.755 1.108h-.086v-1.022h-.971V196zm13.174.136c1.33 0 2.301-.664 2.608-1.653l-.972-.273c-.256.682-.848 1.023-1.636 1.023-1.18 0-1.995-.763-2.041-2.165h4.751v-.426c0-2.437-1.449-3.273-2.813-3.273-1.772 0-2.948 1.398-2.948 3.409 0 2.012 1.159 3.358 3.05 3.358zm-2.041-3.937c.068-1.019.788-1.926 1.938-1.926 1.091 0 1.79.818 1.79 1.926h-3.728zm7.286-.137c0-1.142.708-1.789 1.671-1.789.933 0 1.5.609 1.5 1.636V196h1.006v-4.159c0-1.671-.891-2.472-2.216-2.472-.989 0-1.603.443-1.909 1.108h-.086v-1.022h-.971V196h1.005v-3.938zm8.861-2.607h-1.398v-1.569h-1.006v1.569h-.988v.852h.988v4.091c0 1.142.921 1.687 1.773 1.687.375 0 .614-.068.75-.119l-.204-.904c-.086.018-.222.052-.444.052-.443 0-.869-.137-.869-.989v-3.818h1.398v-.852zm4.888 6.545h1.005v-4.091c0-.959.699-1.636 1.483-1.636.763 0 1.296.498 1.296 1.244V196h1.022v-4.261c0-.844.529-1.466 1.449-1.466.716 0 1.33.379 1.33 1.346V196h1.006v-4.381c0-1.538-.827-2.25-1.995-2.25-.937 0-1.623.431-1.96 1.108h-.068c-.324-.699-.895-1.108-1.756-1.108-.852 0-1.483.409-1.756 1.108h-.085v-1.022h-.971V196zm13.174.136c1.329 0 2.301-.664 2.608-1.653l-.972-.273c-.256.682-.848 1.023-1.636 1.023-1.181 0-1.995-.763-2.042-2.165h4.752v-.426c0-2.437-1.449-3.273-2.813-3.273-1.772 0-2.949 1.398-2.949 3.409 0 2.012 1.16 3.358 3.052 3.358zm-2.042-3.937c.069-1.019.789-1.926 1.939-1.926 1.091 0 1.79.818 1.79 1.926h-3.729zm9.128-2.744h-1.397v-1.569h-1.006v1.569h-.989v.852h.989v4.091c0 1.142.92 1.687 1.773 1.687a2.1 2.1 0 00.75-.119l-.205-.904c-.085.018-.222.052-.443.052-.443 0-.869-.137-.869-.989v-3.818h1.397v-.852zm2.659 2.607c0-1.142.729-1.789 1.722-1.789.946 0 1.517.596 1.517 1.636V196h1.006v-4.159c0-1.683-.895-2.472-2.233-2.472-1.032 0-1.62.431-1.926 1.108h-.086v-3.204h-1.005V196h1.005v-3.938zm8.744 4.074c1.772 0 2.966-1.346 2.966-3.375 0-2.045-1.194-3.392-2.966-3.392-1.773 0-2.966 1.347-2.966 3.392 0 2.029 1.193 3.375 2.966 3.375zm0-.903c-1.347 0-1.961-1.159-1.961-2.472 0-1.312.614-2.488 1.961-2.488 1.346 0 1.96 1.176 1.96 2.488 0 1.313-.614 2.472-1.96 2.472zm6.972.903c1.262 0 1.688-.784 1.909-1.142h.12V196h.971v-8.727h-1.005v3.221h-.086c-.221-.341-.613-1.125-1.892-1.125-1.653 0-2.795 1.313-2.795 3.375 0 2.08 1.142 3.392 2.778 3.392zm.137-.903c-1.262 0-1.909-1.108-1.909-2.506 0-1.38.63-2.454 1.909-2.454 1.227 0 1.875.988 1.875 2.454 0 1.483-.665 2.506-1.875 2.506zM288.042 181.455h1.023c-.047-1.317-1.261-2.302-2.949-2.302-1.67 0-2.983.972-2.983 2.438 0 1.176.853 1.875 2.216 2.267l1.074.307c.921.255 1.739.579 1.739 1.449 0 .954-.921 1.585-2.131 1.585-1.04 0-1.96-.46-2.045-1.449h-1.091c.102 1.432 1.261 2.403 3.136 2.403 2.011 0 3.153-1.108 3.153-2.522 0-1.637-1.551-2.165-2.454-2.404l-.886-.238c-.648-.171-1.688-.512-1.688-1.449 0-.835.767-1.449 1.926-1.449 1.057 0 1.858.503 1.96 1.364zm3.749 2.607c0-1.142.729-1.789 1.722-1.789.946 0 1.517.596 1.517 1.636V188h1.006v-4.159c0-1.683-.895-2.472-2.233-2.472-1.032 0-1.62.431-1.926 1.108h-.086v-3.204h-1.005V188h1.005v-3.938zm8.744 4.074c1.772 0 2.966-1.346 2.966-3.375 0-2.045-1.194-3.392-2.966-3.392-1.773 0-2.966 1.347-2.966 3.392 0 2.029 1.193 3.375 2.966 3.375zm0-.903c-1.347 0-1.961-1.159-1.961-2.472 0-1.312.614-2.488 1.961-2.488 1.346 0 1.96 1.176 1.96 2.488 0 1.313-.614 2.472-1.96 2.472zm4.501 3.222h1.005v-3.461h.086c.221.358.647 1.142 1.909 1.142 1.636 0 2.778-1.312 2.778-3.392 0-2.062-1.142-3.375-2.795-3.375-1.279 0-1.671.784-1.892 1.125h-.12v-1.039h-.971v9zm.988-5.728c0-1.466.648-2.454 1.875-2.454 1.279 0 1.909 1.074 1.909 2.454 0 1.398-.647 2.506-1.909 2.506-1.21 0-1.875-1.023-1.875-2.506zm6.324 5.728h1.006v-3.461h.085c.222.358.648 1.142 1.909 1.142 1.637 0 2.779-1.312 2.779-3.392 0-2.062-1.142-3.375-2.796-3.375-1.278 0-1.67.784-1.892 1.125h-.119v-1.039h-.972v9zm.989-5.728c0-1.466.648-2.454 1.875-2.454 1.278 0 1.909 1.074 1.909 2.454 0 1.398-.648 2.506-1.909 2.506-1.21 0-1.875-1.023-1.875-2.506zm9.068 3.409c1.33 0 2.301-.664 2.608-1.653l-.972-.273c-.255.682-.848 1.023-1.636 1.023-1.18 0-1.994-.763-2.041-2.165h4.751v-.426c0-2.437-1.449-3.273-2.812-3.273-1.773 0-2.949 1.398-2.949 3.409 0 2.012 1.159 3.358 3.051 3.358zm-2.041-3.937c.068-1.019.788-1.926 1.939-1.926 1.091 0 1.79.818 1.79 1.926h-3.729zm6.281 3.801h1.006v-4.142c0-.882.699-1.534 1.653-1.534.252 0 .439.047.58.119l.341-.852c-.205-.145-.473-.239-.836-.239-.792 0-1.47.443-1.704 1.091h-.068v-.988h-.972V188zm10.725.136c1.329 0 2.301-.664 2.608-1.653l-.972-.273c-.255.682-.848 1.023-1.636 1.023-1.181 0-1.994-.763-2.041-2.165h4.751v-.426c0-2.437-1.449-3.273-2.812-3.273-1.773 0-2.949 1.398-2.949 3.409 0 2.012 1.159 3.358 3.051 3.358zm-2.041-3.937c.068-1.019.788-1.926 1.939-1.926 1.09 0 1.789.818 1.789 1.926h-3.728zm7.287-.137c0-1.142.707-1.789 1.67-1.789.933 0 1.5.609 1.5 1.636V188h1.006v-4.159c0-1.671-.891-2.472-2.216-2.472-.989 0-1.602.443-1.909 1.108h-.086v-1.022h-.971V188h1.006v-3.938zm8.86-2.607h-1.398v-1.569h-1.005v1.569h-.989v.852h.989v4.091c0 1.142.92 1.687 1.772 1.687.375 0 .614-.068.75-.119l-.204-.904c-.085.018-.222.052-.443.052-.444 0-.87-.137-.87-.989v-3.818h1.398v-.852zm4.187 6.681c1.329 0 2.301-.664 2.608-1.653l-.972-.273c-.255.682-.848 1.023-1.636 1.023-1.181 0-1.994-.763-2.041-2.165h4.751v-.426c0-2.437-1.449-3.273-2.812-3.273-1.773 0-2.949 1.398-2.949 3.409 0 2.012 1.159 3.358 3.051 3.358zm-2.041-3.937c.068-1.019.788-1.926 1.939-1.926 1.09 0 1.789.818 1.789 1.926h-3.728zm6.281 3.801h1.006v-4.142c0-.882.698-1.534 1.653-1.534.251 0 .439.047.58.119l.34-.852c-.204-.145-.473-.239-.835-.239-.792 0-1.47.443-1.704 1.091h-.069v-.988h-.971V188zm9.242-5.08c-.316-.929-1.023-1.551-2.318-1.551-1.381 0-2.404.784-2.404 1.892 0 .904.537 1.509 1.739 1.79l1.091.256c.66.153.971.469.971.92 0 .563-.596 1.023-1.534 1.023-.822 0-1.338-.354-1.517-1.057l-.954.239c.234 1.112 1.15 1.704 2.488 1.704 1.522 0 2.557-.831 2.557-1.96 0-.912-.571-1.487-1.739-1.773l-.971-.238c-.776-.192-1.125-.452-1.125-.955 0-.562.596-.971 1.398-.971.877 0 1.24.485 1.414.937l.904-.256zm5.502-3.647h-1.108l3.205 8.727h1.091l3.204-8.727h-1.108l-2.591 7.346h-.102l-2.591-7.346zm7.752 8.727h1.056v-3.188h1.91c2.032 0 2.948-1.235 2.948-2.778s-.916-2.761-2.966-2.761h-2.948V188zm1.056-4.125v-3.665h1.858c1.419 0 1.961.776 1.961 1.824s-.542 1.841-1.944 1.841h-1.875zm6.028 4.125l.878-2.472h3.528l.878 2.472h1.108l-3.204-8.727h-1.091L388.375 188h1.108zm1.21-3.409l1.398-3.938h.068l1.398 3.938h-2.864zm11.706 3.562c1.142 0 1.739-.613 1.944-1.039h.051V188h1.005v-4.312c0-2.08-1.585-2.319-2.42-2.319-.989 0-2.114.341-2.625 1.534l.954.341c.222-.477.746-.988 1.705-.988.925 0 1.381.49 1.381 1.329v.034c0 .486-.495.443-1.688.597-1.214.158-2.54.426-2.54 1.926 0 1.278.989 2.011 2.233 2.011zm.154-.903c-.801 0-1.381-.358-1.381-1.057 0-.767.699-1.005 1.483-1.108.426-.051 1.568-.17 1.739-.375v.921c0 .818-.648 1.619-1.841 1.619zm5.688-3.188c0-1.142.707-1.789 1.67-1.789.933 0 1.5.609 1.5 1.636V188h1.006v-4.159c0-1.671-.891-2.472-2.216-2.472-.989 0-1.602.443-1.909 1.108h-.086v-1.022h-.971V188h1.006v-3.938zm8.485 4.074c1.261 0 1.688-.784 1.909-1.142h.119V188h.972v-8.727h-1.006v3.221h-.085c-.221-.341-.614-1.125-1.892-1.125-1.653 0-2.795 1.313-2.795 3.375 0 2.08 1.142 3.392 2.778 3.392zm.136-.903c-1.261 0-1.909-1.108-1.909-2.506 0-1.38.631-2.454 1.909-2.454 1.228 0 1.875.988 1.875 2.454 0 1.483-.664 2.506-1.875 2.506zm-97.176 13.687c-.316-.929-1.023-1.551-2.318-1.551-1.381 0-2.404.784-2.404 1.892 0 .904.537 1.509 1.739 1.79l1.091.256c.66.153.971.469.971.92 0 .563-.596 1.023-1.534 1.023-.822 0-1.338-.354-1.517-1.057l-.954.239c.234 1.112 1.15 1.704 2.488 1.704 1.522 0 2.557-.831 2.557-1.96 0-.912-.571-1.487-1.739-1.773l-.971-.238c-.776-.192-1.125-.452-1.125-.955 0-.562.596-.971 1.398-.971.877 0 1.24.485 1.414.937l.904-.256zm4.377 5.216c1.33 0 2.301-.664 2.608-1.653l-.971-.273c-.256.682-.848 1.023-1.637 1.023-1.18 0-1.994-.763-2.041-2.165h4.751v-.426c0-2.437-1.448-3.273-2.812-3.273-1.773 0-2.949 1.398-2.949 3.409 0 2.012 1.159 3.358 3.051 3.358zm-2.041-3.937c.068-1.019.788-1.926 1.939-1.926 1.091 0 1.79.818 1.79 1.926h-3.729zm7.287-4.926h-1.006V206h1.006v-8.727zm4.586 8.863c1.33 0 2.301-.664 2.608-1.653l-.971-.273c-.256.682-.848 1.023-1.637 1.023-1.18 0-1.994-.763-2.041-2.165h4.751v-.426c0-2.437-1.448-3.273-2.812-3.273-1.773 0-2.949 1.398-2.949 3.409 0 2.012 1.159 3.358 3.051 3.358zm-2.041-3.937c.068-1.019.788-1.926 1.939-1.926 1.091 0 1.79.818 1.79 1.926h-3.729zm8.94 3.937c1.449 0 2.404-.886 2.574-2.045h-1.005c-.188.716-.785 1.142-1.569 1.142-1.193 0-1.96-.989-1.96-2.506 0-1.483.784-2.454 1.96-2.454.887 0 1.415.545 1.569 1.142h1.005c-.17-1.227-1.21-2.046-2.591-2.046-1.772 0-2.949 1.398-2.949 3.392 0 1.961 1.125 3.375 2.966 3.375zm6.891-6.681h-1.398v-1.569h-1.005v1.569h-.989v.852h.989v4.091c0 1.142.92 1.687 1.772 1.687.375 0 .614-.068.75-.119l-.204-.904c-.085.018-.222.052-.443.052-.444 0-.87-.137-.87-.989v-3.818h1.398v-.852zm6.032 1.465c-.315-.929-1.023-1.551-2.318-1.551-1.381 0-2.404.784-2.404 1.892 0 .904.537 1.509 1.739 1.79l1.091.256c.66.153.972.469.972.92 0 .563-.597 1.023-1.535 1.023-.822 0-1.338-.354-1.517-1.057l-.954.239c.234 1.112 1.15 1.704 2.488 1.704 1.522 0 2.557-.831 2.557-1.96 0-.912-.571-1.487-1.738-1.773l-.972-.238c-.776-.192-1.125-.452-1.125-.955 0-.562.597-.971 1.398-.971.878 0 1.24.485 1.415.937l.903-.256zm4.667-.92h.955v-.784c0-.631.307-1.176.665-1.688l-.546-.443c-.682.546-1.074 1.449-1.074 2.148V200zm2.182 0h.955v-.784c0-.631.306-1.176.664-1.688l-.545-.443c-.682.546-1.074 1.449-1.074 2.148V200zm2.866 6h1.057v-3.188h1.909c2.032 0 2.949-1.235 2.949-2.778s-.917-2.761-2.966-2.761h-2.949V206zm1.057-4.125v-3.665h1.858c1.419 0 1.96.776 1.96 1.824s-.541 1.841-1.943 1.841h-1.875zm6.027 4.125l.878-2.472h3.529L375.8 206h1.108l-3.204-8.727h-1.091L369.408 206h1.108zm1.211-3.409l1.397-3.938h.068l1.398 3.938h-2.863zm4.9-5.318l3.154 5.13V206h1.056v-3.597l3.154-5.13h-1.21l-2.421 4.074h-.102l-2.421-4.074h-1.21zm9.481 0h-.955v.784c0 .631-.307 1.176-.665 1.687l.546.444c.682-.546 1.074-1.449 1.074-2.148v-.767zm2.181 0h-.954v.784c0 .631-.307 1.176-.665 1.687l.546.444c.681-.546 1.073-1.449 1.073-2.148v-.767zM507.18 188l.878-2.472h3.529l.877 2.472h1.108l-3.204-8.727h-1.091L506.072 188h1.108zm1.211-3.409l1.397-3.938h.069l1.397 3.938h-2.863zM518.17 188h1.006v-4.091c0-.959.699-1.636 1.483-1.636.763 0 1.296.498 1.296 1.244V188h1.022v-4.261c0-.844.529-1.466 1.449-1.466.716 0 1.33.379 1.33 1.346V188h1.005v-4.381c0-1.538-.826-2.25-1.994-2.25-.937 0-1.624.431-1.96 1.108h-.068c-.324-.699-.895-1.108-1.756-1.108-.852 0-1.483.409-1.756 1.108h-.085v-1.022h-.972V188zm13.174.136c1.33 0 2.302-.664 2.608-1.653l-.971-.273c-.256.682-.848 1.023-1.637 1.023-1.18 0-1.994-.763-2.041-2.165h4.752v-.426c0-2.437-1.449-3.273-2.813-3.273-1.773 0-2.949 1.398-2.949 3.409 0 2.012 1.159 3.358 3.051 3.358zm-2.041-3.937c.068-1.019.789-1.926 1.939-1.926 1.091 0 1.79.818 1.79 1.926h-3.729zm10.918-1.279c-.315-.929-1.023-1.551-2.318-1.551-1.381 0-2.404.784-2.404 1.892 0 .904.537 1.509 1.739 1.79l1.091.256c.66.153.971.469.971.92 0 .563-.596 1.023-1.534 1.023-.822 0-1.338-.354-1.517-1.057l-.954.239c.234 1.112 1.15 1.704 2.488 1.704 1.522 0 2.557-.831 2.557-1.96 0-.912-.571-1.487-1.738-1.773l-.972-.238c-.776-.192-1.125-.452-1.125-.955 0-.562.597-.971 1.398-.971.878 0 1.24.485 1.414.937l.904-.256zm6.269 0c-.315-.929-1.022-1.551-2.318-1.551-1.38 0-2.403.784-2.403 1.892 0 .904.537 1.509 1.738 1.79l1.091.256c.661.153.972.469.972.92 0 .563-.597 1.023-1.534 1.023-.823 0-1.338-.354-1.517-1.057l-.955.239c.235 1.112 1.151 1.704 2.489 1.704 1.521 0 2.557-.831 2.557-1.96 0-.912-.571-1.487-1.739-1.773l-.971-.238c-.776-.192-1.125-.452-1.125-.955 0-.562.596-.971 1.397-.971.878 0 1.24.485 1.415.937l.903-.256zm3.56 5.233c1.142 0 1.738-.613 1.943-1.039h.051V188h1.006v-4.312c0-2.08-1.586-2.319-2.421-2.319-.988 0-2.113.341-2.625 1.534l.955.341c.221-.477.746-.988 1.704-.988.925 0 1.381.49 1.381 1.329v.034c0 .486-.494.443-1.687.597-1.215.158-2.54.426-2.54 1.926 0 1.278.988 2.011 2.233 2.011zm.153-.903c-.801 0-1.381-.358-1.381-1.057 0-.767.699-1.005 1.483-1.108.427-.051 1.569-.17 1.739-.375v.921c0 .818-.648 1.619-1.841 1.619zm7.324 3.341c1.569 0 2.83-.716 2.83-2.403v-6.733h-.972v1.039h-.102c-.222-.341-.631-1.125-1.909-1.125-1.653 0-2.796 1.313-2.796 3.324 0 2.046 1.194 3.205 2.779 3.205 1.278 0 1.687-.75 1.909-1.108h.085v1.329c0 1.091-.767 1.586-1.824 1.586-1.189 0-1.606-.627-1.875-.989l-.801.562c.409.686 1.215 1.313 2.676 1.313zm-.034-3.597c-1.261 0-1.909-.954-1.909-2.318 0-1.329.631-2.403 1.909-2.403 1.228 0 1.875.988 1.875 2.403 0 1.449-.665 2.318-1.875 2.318zm7.449 1.142c1.33 0 2.301-.664 2.608-1.653l-.972-.273c-.255.682-.848 1.023-1.636 1.023-1.18 0-1.994-.763-2.041-2.165h4.751v-.426c0-2.437-1.449-3.273-2.812-3.273-1.773 0-2.949 1.398-2.949 3.409 0 2.012 1.159 3.358 3.051 3.358zm-2.041-3.937c.068-1.019.788-1.926 1.939-1.926 1.091 0 1.79.818 1.79 1.926h-3.729zm9.656 3.801h1.006v-4.142c0-.882.699-1.534 1.653-1.534.252 0 .439.047.58.119l.341-.852c-.205-.145-.473-.239-.836-.239-.792 0-1.47.443-1.704 1.091h-.068v-.988h-.972V188zm7.151.136c1.329 0 2.301-.664 2.608-1.653l-.972-.273c-.256.682-.848 1.023-1.636 1.023-1.181 0-1.995-.763-2.041-2.165h4.751v-.426c0-2.437-1.449-3.273-2.813-3.273-1.772 0-2.948 1.398-2.948 3.409 0 2.012 1.159 3.358 3.051 3.358zm-2.041-3.937c.068-1.019.788-1.926 1.938-1.926 1.091 0 1.79.818 1.79 1.926h-3.728zm11.752 6.256v-9h-.971v1.039h-.12c-.221-.341-.613-1.125-1.892-1.125-1.653 0-2.795 1.313-2.795 3.375 0 2.08 1.142 3.392 2.778 3.392 1.262 0 1.688-.784 1.909-1.142h.086v3.461h1.005zm-.988-5.728c0 1.483-.665 2.506-1.875 2.506-1.262 0-1.909-1.108-1.909-2.506 0-1.38.63-2.454 1.909-2.454 1.227 0 1.875.988 1.875 2.454zm6.954.597c0 1.227-.937 1.79-1.687 1.79-.835 0-1.432-.614-1.432-1.569v-4.09h-1.006v4.159c0 1.67.887 2.471 2.114 2.471.989 0 1.636-.528 1.943-1.193h.068V188h1.006v-6.545h-1.006v3.869zm5.592 2.812c1.33 0 2.301-.664 2.608-1.653l-.971-.273c-.256.682-.848 1.023-1.637 1.023-1.18 0-1.994-.763-2.041-2.165h4.752v-.426c0-2.437-1.449-3.273-2.813-3.273-1.773 0-2.949 1.398-2.949 3.409 0 2.012 1.159 3.358 3.051 3.358zm-2.041-3.937c.068-1.019.788-1.926 1.939-1.926 1.091 0 1.79.818 1.79 1.926h-3.729zm10.918-1.279c-.316-.929-1.023-1.551-2.318-1.551-1.381 0-2.404.784-2.404 1.892 0 .904.537 1.509 1.739 1.79l1.091.256c.66.153.971.469.971.92 0 .563-.596 1.023-1.534 1.023-.822 0-1.338-.354-1.517-1.057l-.954.239c.234 1.112 1.15 1.704 2.488 1.704 1.522 0 2.557-.831 2.557-1.96 0-.912-.571-1.487-1.739-1.773l-.971-.238c-.776-.192-1.125-.452-1.125-.955 0-.562.596-.971 1.398-.971.877 0 1.24.485 1.414.937l.904-.256zm4.479-1.465h-1.397v-1.569h-1.006v1.569h-.989v.852h.989v4.091c0 1.142.92 1.687 1.773 1.687a2.1 2.1 0 00.75-.119l-.205-.904c-.085.018-.221.052-.443.052-.443 0-.869-.137-.869-.989v-3.818h1.397v-.852zm6.032 1.465c-.315-.929-1.022-1.551-2.318-1.551-1.38 0-2.403.784-2.403 1.892 0 .904.537 1.509 1.738 1.79l1.091.256c.661.153.972.469.972.92 0 .563-.597 1.023-1.534 1.023-.823 0-1.338-.354-1.517-1.057l-.955.239c.235 1.112 1.151 1.704 2.489 1.704 1.521 0 2.557-.831 2.557-1.96 0-.912-.571-1.487-1.739-1.773l-.971-.238c-.776-.192-1.125-.452-1.125-.955 0-.562.596-.971 1.397-.971.878 0 1.24.485 1.415.937l.903-.256zm7.855-1.465h-1.398v-1.569h-1.005v1.569h-.989v.852h.989v4.091c0 1.142.92 1.687 1.772 1.687.375 0 .614-.068.75-.119l-.204-.904c-.085.018-.222.052-.443.052-.443 0-.87-.137-.87-.989v-3.818h1.398v-.852zm2.659 2.607c0-1.142.729-1.789 1.722-1.789.946 0 1.517.596 1.517 1.636V188h1.006v-4.159c0-1.683-.895-2.472-2.233-2.472-1.032 0-1.62.431-1.927 1.108h-.085v-3.204h-1.005V188h1.005v-3.938zm8.829 4.074c1.329 0 2.301-.664 2.608-1.653l-.972-.273c-.256.682-.848 1.023-1.636 1.023-1.181 0-1.995-.763-2.041-2.165h4.751v-.426c0-2.437-1.449-3.273-2.813-3.273-1.772 0-2.948 1.398-2.948 3.409 0 2.012 1.159 3.358 3.051 3.358zm-2.041-3.937c.068-1.019.788-1.926 1.938-1.926 1.091 0 1.79.818 1.79 1.926h-3.728zm13.781 1.125c0 1.227-.938 1.79-1.688 1.79-.835 0-1.432-.614-1.432-1.569v-4.09h-1.005v4.159c0 1.67.886 2.471 2.113 2.471.989 0 1.637-.528 1.944-1.193h.068V188h1.005v-6.545h-1.005v3.869zm7.484-2.404c-.316-.929-1.023-1.551-2.318-1.551-1.381 0-2.404.784-2.404 1.892 0 .904.537 1.509 1.739 1.79l1.091.256c.66.153.971.469.971.92 0 .563-.596 1.023-1.534 1.023-.822 0-1.338-.354-1.517-1.057l-.954.239c.234 1.112 1.15 1.704 2.488 1.704 1.522 0 2.557-.831 2.557-1.96 0-.912-.571-1.487-1.739-1.773l-.971-.238c-.776-.192-1.125-.452-1.125-.955 0-.562.596-.971 1.398-.971.877 0 1.24.485 1.414.937l.904-.256zm4.377 5.216c1.33 0 2.301-.664 2.608-1.653l-.971-.273c-.256.682-.848 1.023-1.637 1.023-1.18 0-1.994-.763-2.041-2.165h4.752v-.426c0-2.437-1.449-3.273-2.813-3.273-1.773 0-2.949 1.398-2.949 3.409 0 2.012 1.159 3.358 3.051 3.358zm-2.041-3.937c.068-1.019.788-1.926 1.939-1.926 1.091 0 1.79.818 1.79 1.926h-3.729zm6.281 3.801h1.006v-4.142c0-.882.699-1.534 1.653-1.534.252 0 .439.047.58.119l.341-.852c-.205-.145-.473-.239-.835-.239-.793 0-1.47.443-1.705 1.091h-.068v-.988h-.972V188zm-148.524 11.455h-1.398v-1.569h-1.006v1.569h-.988v.852h.988v4.091c0 1.142.921 1.687 1.773 1.687.375 0 .614-.068.75-.119l-.204-.904c-.086.018-.222.052-.444.052-.443 0-.869-.137-.869-.989v-3.818h1.398v-.852zm4.101 6.681c1.773 0 2.966-1.346 2.966-3.375 0-2.045-1.193-3.392-2.966-3.392-1.772 0-2.965 1.347-2.965 3.392 0 2.029 1.193 3.375 2.965 3.375zm0-.903c-1.346 0-1.96-1.159-1.96-2.472 0-1.312.614-2.488 1.96-2.488 1.347 0 1.961 1.176 1.961 2.488 0 1.313-.614 2.472-1.961 2.472zm9.803.92c1.142 0 1.738-.613 1.943-1.039h.051V206h1.006v-4.312c0-2.08-1.586-2.319-2.421-2.319-.988 0-2.113.341-2.625 1.534l.955.341c.221-.477.745-.988 1.704-.988.925 0 1.381.49 1.381 1.329v.034c0 .486-.494.443-1.688.597-1.214.158-2.539.426-2.539 1.926 0 1.278.988 2.011 2.233 2.011zm.153-.903c-.801 0-1.381-.358-1.381-1.057 0-.767.699-1.005 1.483-1.108.426-.051 1.568-.17 1.739-.375v.921c0 .818-.648 1.619-1.841 1.619zm7.341.886c1.449 0 2.404-.886 2.574-2.045h-1.006c-.187.716-.784 1.142-1.568 1.142-1.193 0-1.96-.989-1.96-2.506 0-1.483.784-2.454 1.96-2.454.887 0 1.415.545 1.568 1.142h1.006c-.17-1.227-1.21-2.046-2.591-2.046-1.772 0-2.949 1.398-2.949 3.392 0 1.961 1.125 3.375 2.966 3.375zm6.703 0c1.449 0 2.404-.886 2.574-2.045h-1.005c-.188.716-.784 1.142-1.569 1.142-1.193 0-1.96-.989-1.96-2.506 0-1.483.784-2.454 1.96-2.454.887 0 1.415.545 1.569 1.142h1.005c-.17-1.227-1.21-2.046-2.591-2.046-1.772 0-2.948 1.398-2.948 3.392 0 1.961 1.125 3.375 2.965 3.375zm6.789 0c1.329 0 2.301-.664 2.608-1.653l-.972-.273c-.256.682-.848 1.023-1.636 1.023-1.181 0-1.995-.763-2.041-2.165h4.751v-.426c0-2.437-1.449-3.273-2.813-3.273-1.772 0-2.948 1.398-2.948 3.409 0 2.012 1.159 3.358 3.051 3.358zm-2.041-3.937c.068-1.019.788-1.926 1.938-1.926 1.091 0 1.79.818 1.79 1.926h-3.728zm6.281 6.256h1.006v-3.461h.085c.221.358.647 1.142 1.909 1.142 1.636 0 2.778-1.312 2.778-3.392 0-2.062-1.142-3.375-2.795-3.375-1.279 0-1.671.784-1.892 1.125h-.12v-1.039h-.971v9zm.988-5.728c0-1.466.648-2.454 1.875-2.454 1.279 0 1.91 1.074 1.91 2.454 0 1.398-.648 2.506-1.91 2.506-1.21 0-1.875-1.023-1.875-2.506zm9.171-3.272h-1.398v-1.569h-1.005v1.569h-.989v.852h.989v4.091c0 1.142.92 1.687 1.772 1.687.375 0 .614-.068.75-.119l-.204-.904c-.086.018-.222.052-.443.052-.444 0-.87-.137-.87-.989v-3.818h1.398v-.852zm4.888 9h1.005v-3.461h.086c.221.358.647 1.142 1.909 1.142 1.636 0 2.778-1.312 2.778-3.392 0-2.062-1.142-3.375-2.795-3.375-1.279 0-1.671.784-1.892 1.125h-.12v-1.039h-.971v9zm.988-5.728c0-1.466.648-2.454 1.875-2.454 1.279 0 1.909 1.074 1.909 2.454 0 1.398-.647 2.506-1.909 2.506-1.21 0-1.875-1.023-1.875-2.506zm8.25 3.426c1.142 0 1.739-.613 1.944-1.039h.051V206h1.005v-4.312c0-2.08-1.585-2.319-2.42-2.319-.989 0-2.114.341-2.625 1.534l.954.341c.222-.477.746-.988 1.705-.988.925 0 1.381.49 1.381 1.329v.034c0 .486-.495.443-1.688.597-1.214.158-2.54.426-2.54 1.926 0 1.278.989 2.011 2.233 2.011zm.154-.903c-.801 0-1.381-.358-1.381-1.057 0-.767.699-1.005 1.483-1.108.426-.051 1.568-.17 1.739-.375v.921c0 .818-.648 1.619-1.841 1.619zm5.061 3.29c.921 0 1.551-.478 1.926-1.483l2.813-7.602h-1.091l-1.807 5.215h-.068l-1.807-5.215h-1.091l2.421 6.579-.222.614c-.354.98-.818 1.074-1.551.886l-.256.886c.103.052.392.12.733.12zm6.066-2.54h1.006v-4.091c0-.959.699-1.636 1.483-1.636.763 0 1.295.498 1.295 1.244V206h1.023v-4.261c0-.844.528-1.466 1.449-1.466.716 0 1.329.379 1.329 1.346V206h1.006v-4.381c0-1.538-.827-2.25-1.994-2.25-.938 0-1.624.431-1.96 1.108h-.069c-.323-.699-.894-1.108-1.755-1.108-.853 0-1.483.409-1.756 1.108h-.085v-1.022h-.972V206zm13.174.136c1.33 0 2.301-.664 2.608-1.653l-.971-.273c-.256.682-.848 1.023-1.637 1.023-1.18 0-1.994-.763-2.041-2.165h4.751v-.426c0-2.437-1.448-3.273-2.812-3.273-1.773 0-2.949 1.398-2.949 3.409 0 2.012 1.159 3.358 3.051 3.358zm-2.041-3.937c.068-1.019.788-1.926 1.939-1.926 1.091 0 1.79.818 1.79 1.926h-3.729zm7.287-.137c0-1.142.707-1.789 1.67-1.789.934 0 1.5.609 1.5 1.636V206h1.006v-4.159c0-1.671-.891-2.472-2.216-2.472-.988 0-1.602.443-1.909 1.108h-.085v-1.022h-.972V206h1.006v-3.938zm8.86-2.607h-1.397v-1.569h-1.006v1.569h-.989v.852h.989v4.091c0 1.142.92 1.687 1.773 1.687a2.1 2.1 0 00.75-.119l-.205-.904c-.085.018-.221.052-.443.052-.443 0-.869-.137-.869-.989v-3.818h1.397v-.852zm4.888 6.545h1.006v-6.545h-1.006V206zm.512-7.636c.392 0 .715-.307.715-.682 0-.375-.323-.682-.715-.682-.392 0-.716.307-.716.682 0 .375.324.682.716.682zm3.342 3.698c0-1.142.707-1.789 1.67-1.789.933 0 1.5.609 1.5 1.636V206h1.006v-4.159c0-1.671-.891-2.472-2.216-2.472-.989 0-1.603.443-1.909 1.108h-.086v-1.022h-.971V206h1.006v-3.938zm9.763-.272h-3.818v.937h3.818v-.937zm3.696 4.363c1.142 0 1.739-.613 1.943-1.039h.051V206h1.006v-4.312c0-2.08-1.585-2.319-2.42-2.319-.989 0-2.114.341-2.625 1.534l.954.341c.222-.477.746-.988 1.705-.988.924 0 1.38.49 1.38 1.329v.034c0 .486-.494.443-1.687.597-1.215.158-2.54.426-2.54 1.926 0 1.278.989 2.011 2.233 2.011zm.153-.903c-.801 0-1.38-.358-1.38-1.057 0-.767.699-1.005 1.483-1.108.426-.051 1.568-.17 1.738-.375v.921c0 .818-.647 1.619-1.841 1.619zm4.683 3.205h1.005v-3.461h.086c.221.358.647 1.142 1.909 1.142 1.636 0 2.778-1.312 2.778-3.392 0-2.062-1.142-3.375-2.795-3.375-1.279 0-1.671.784-1.892 1.125h-.12v-1.039h-.971v9zm.988-5.728c0-1.466.648-2.454 1.875-2.454 1.279 0 1.909 1.074 1.909 2.454 0 1.398-.647 2.506-1.909 2.506-1.21 0-1.875-1.023-1.875-2.506zm6.324 5.728h1.006v-3.461h.085c.222.358.648 1.142 1.909 1.142 1.637 0 2.779-1.312 2.779-3.392 0-2.062-1.142-3.375-2.796-3.375-1.278 0-1.67.784-1.892 1.125h-.119v-1.039h-.972v9zm.989-5.728c0-1.466.648-2.454 1.875-2.454 1.278 0 1.909 1.074 1.909 2.454 0 1.398-.648 2.506-1.909 2.506-1.21 0-1.875-1.023-1.875-2.506zM514.772 448.273v5.778c0 1.364-1.091 2.114-2.335 2.114s-2.335-.75-2.335-2.114v-5.778h-1.057v5.778c0 1.96 1.551 3.102 3.392 3.102s3.392-1.142 3.392-3.102v-5.778h-1.057zm7.668 3.647c-.316-.929-1.023-1.551-2.319-1.551-1.38 0-2.403.784-2.403 1.892 0 .904.537 1.509 1.739 1.79l1.091.256c.66.153.971.469.971.92 0 .563-.596 1.023-1.534 1.023-.822 0-1.338-.354-1.517-1.057l-.955.239c.235 1.112 1.151 1.704 2.489 1.704 1.521 0 2.557-.831 2.557-1.96 0-.912-.571-1.487-1.739-1.773l-.971-.238c-.776-.192-1.125-.452-1.125-.955 0-.562.596-.971 1.397-.971.878 0 1.241.485 1.415.937l.904-.256zm4.377 5.216c1.33 0 2.301-.664 2.608-1.653l-.972-.273c-.255.682-.848 1.023-1.636 1.023-1.18 0-1.994-.763-2.041-2.165h4.751v-.426c0-2.437-1.449-3.273-2.812-3.273-1.773 0-2.949 1.398-2.949 3.409 0 2.012 1.159 3.358 3.051 3.358zm-2.041-3.937c.068-1.019.788-1.926 1.939-1.926 1.091 0 1.79.818 1.79 1.926h-3.729zm6.281 3.801h1.006v-4.142c0-.882.699-1.534 1.653-1.534.252 0 .439.047.58.119l.341-.852c-.205-.145-.473-.239-.836-.239-.792 0-1.47.443-1.704 1.091h-.068v-.988h-.972V457zm7.981 0h1.005v-4.142c0-.882.699-1.534 1.654-1.534.251 0 .439.047.579.119l.341-.852c-.204-.145-.473-.239-.835-.239-.793 0-1.47.443-1.705 1.091h-.068v-.988h-.971V457zm7.065.136c1.773 0 2.966-1.346 2.966-3.375 0-2.045-1.193-3.392-2.966-3.392-1.773 0-2.966 1.347-2.966 3.392 0 2.029 1.193 3.375 2.966 3.375zm0-.903c-1.347 0-1.96-1.159-1.96-2.472 0-1.312.613-2.488 1.96-2.488s1.96 1.176 1.96 2.488c0 1.313-.613 2.472-1.96 2.472zm8.626-1.909c0 1.227-.937 1.79-1.687 1.79-.836 0-1.432-.614-1.432-1.569v-4.09h-1.006v4.159c0 1.67.886 2.471 2.114 2.471.988 0 1.636-.528 1.943-1.193h.068V457h1.006v-6.545h-1.006v3.869zm5.694-3.869h-1.397v-1.569h-1.006v1.569h-.989v.852h.989v4.091c0 1.142.92 1.687 1.773 1.687a2.1 2.1 0 00.75-.119l-.205-.904c-.085.018-.222.052-.443.052-.443 0-.869-.137-.869-.989v-3.818h1.397v-.852zm4.187 6.681c1.33 0 2.301-.664 2.608-1.653l-.972-.273c-.255.682-.848 1.023-1.636 1.023-1.18 0-1.994-.763-2.041-2.165h4.751v-.426c0-2.437-1.449-3.273-2.812-3.273-1.773 0-2.949 1.398-2.949 3.409 0 2.012 1.159 3.358 3.051 3.358zm-2.041-3.937c.068-1.019.788-1.926 1.939-1.926 1.091 0 1.79.818 1.79 1.926h-3.729zm8.753 3.937c1.261 0 1.687-.784 1.909-1.142h.119V457h.972v-8.727h-1.006v3.221h-.085c-.222-.341-.614-1.125-1.892-1.125-1.654 0-2.796 1.313-2.796 3.375 0 2.08 1.142 3.392 2.779 3.392zm.136-.903c-1.261 0-1.909-1.108-1.909-2.506 0-1.38.631-2.454 1.909-2.454 1.227 0 1.875.988 1.875 2.454 0 1.483-.665 2.506-1.875 2.506zm8.357.767h.971v-1.006h.12c.221.358.647 1.142 1.909 1.142 1.636 0 2.778-1.312 2.778-3.392 0-2.062-1.142-3.375-2.795-3.375-1.279 0-1.671.784-1.892 1.125h-.086v-3.221h-1.005V457zm.988-3.273c0-1.466.648-2.454 1.875-2.454 1.279 0 1.909 1.074 1.909 2.454 0 1.398-.647 2.506-1.909 2.506-1.21 0-1.875-1.023-1.875-2.506zm8.255 3.426c1.142 0 1.738-.613 1.943-1.039h.051V457h1.006v-4.312c0-2.08-1.586-2.319-2.421-2.319-.989 0-2.114.341-2.625 1.534l.955.341c.221-.477.745-.988 1.704-.988.925 0 1.381.49 1.381 1.329v.034c0 .486-.494.443-1.688.597-1.214.158-2.539.426-2.539 1.926 0 1.278.988 2.011 2.233 2.011zm.153-.903c-.801 0-1.381-.358-1.381-1.057 0-.767.699-1.005 1.483-1.108.426-.051 1.568-.17 1.739-.375v.921c0 .818-.648 1.619-1.841 1.619zm7.341.886c1.449 0 2.404-.886 2.574-2.045h-1.006c-.187.716-.784 1.142-1.568 1.142-1.193 0-1.96-.989-1.96-2.506 0-1.483.784-2.454 1.96-2.454.887 0 1.415.545 1.568 1.142h1.006c-.17-1.227-1.21-2.046-2.591-2.046-1.773 0-2.949 1.398-2.949 3.392 0 1.961 1.125 3.375 2.966 3.375zm4.044-.136h1.006v-2.45l.703-.652 2.45 3.102h1.279l-2.97-3.75 2.765-2.795h-1.244l-2.864 2.914h-.119v-5.096h-1.006V457zm12.749-6.545h-1.398v-1.569h-1.005v1.569h-.989v.852h.989v4.091c0 1.142.92 1.687 1.772 1.687.375 0 .614-.068.75-.119l-.204-.904c-.085.018-.222.052-.443.052-.443 0-.87-.137-.87-.989v-3.818h1.398v-.852zm4.102 6.681c1.772 0 2.966-1.346 2.966-3.375 0-2.045-1.194-3.392-2.966-3.392-1.773 0-2.966 1.347-2.966 3.392 0 2.029 1.193 3.375 2.966 3.375zm0-.903c-1.347 0-1.96-1.159-1.96-2.472 0-1.312.613-2.488 1.96-2.488 1.346 0 1.96 1.176 1.96 2.488 0 1.313-.614 2.472-1.96 2.472zm10.535.903c1.773 0 2.966-1.346 2.966-3.375 0-2.045-1.193-3.392-2.966-3.392-1.773 0-2.966 1.347-2.966 3.392 0 2.029 1.193 3.375 2.966 3.375zm0-.903c-1.347 0-1.96-1.159-1.96-2.472 0-1.312.613-2.488 1.96-2.488 1.346 0 1.96 1.176 1.96 2.488 0 1.313-.614 2.472-1.96 2.472zm4.501.767h1.006v-4.142c0-.882.699-1.534 1.653-1.534.251 0 .439.047.58.119l.34-.852c-.204-.145-.473-.239-.835-.239-.792 0-1.47.443-1.704 1.091h-.068v-.988h-.972V457zm6.878.136c1.261 0 1.687-.784 1.909-1.142h.119V457h.972v-8.727h-1.006v3.221h-.085c-.222-.341-.614-1.125-1.892-1.125-1.654 0-2.796 1.313-2.796 3.375 0 2.08 1.142 3.392 2.779 3.392zm.136-.903c-1.261 0-1.909-1.108-1.909-2.506 0-1.38.631-2.454 1.909-2.454 1.227 0 1.875.988 1.875 2.454 0 1.483-.665 2.506-1.875 2.506zm7.59.903c1.329 0 2.301-.664 2.608-1.653l-.972-.273c-.256.682-.848 1.023-1.636 1.023-1.181 0-1.995-.763-2.042-2.165h4.752v-.426c0-2.437-1.449-3.273-2.813-3.273-1.772 0-2.948 1.398-2.948 3.409 0 2.012 1.159 3.358 3.051 3.358zm-2.042-3.937c.069-1.019.789-1.926 1.939-1.926 1.091 0 1.79.818 1.79 1.926h-3.729zm6.282 3.801h1.005v-4.142c0-.882.699-1.534 1.654-1.534.251 0 .439.047.579.119l.341-.852c-.204-.145-.473-.239-.835-.239-.793 0-1.47.443-1.705 1.091h-.068v-.988h-.971V457zm-101.796 18.136c1.449 0 2.403-.886 2.574-2.045h-1.006c-.188.716-.784 1.142-1.568 1.142-1.193 0-1.961-.989-1.961-2.506 0-1.483.785-2.454 1.961-2.454.886 0 1.414.545 1.568 1.142h1.006c-.171-1.227-1.211-2.046-2.591-2.046-1.773 0-2.949 1.398-2.949 3.392 0 1.961 1.125 3.375 2.966 3.375zm6.703 0c1.773 0 2.966-1.346 2.966-3.375 0-2.045-1.193-3.392-2.966-3.392-1.773 0-2.966 1.347-2.966 3.392 0 2.029 1.193 3.375 2.966 3.375zm0-.903c-1.347 0-1.96-1.159-1.96-2.472 0-1.312.613-2.488 1.96-2.488 1.346 0 1.96 1.176 1.96 2.488 0 1.313-.614 2.472-1.96 2.472zm5.507-3.171c0-1.142.707-1.789 1.67-1.789.933 0 1.5.609 1.5 1.636V475h1.006v-4.159c0-1.671-.891-2.472-2.216-2.472-.989 0-1.602.443-1.909 1.108h-.086v-1.022h-.971V475h1.006v-3.938zm8.928-2.607h-1.466v-.665c0-.648.273-.989.938-.989.29 0 .46.068.562.102l.29-.869c-.153-.068-.46-.17-.954-.17-.938 0-1.841.562-1.841 1.687v.904h-1.057v.852h1.057V475h1.005v-5.693h1.466v-.852zm1.41 6.545h1.005v-6.545h-1.005V475zm.511-7.636c.392 0 .716-.307.716-.682 0-.375-.324-.682-.716-.682-.392 0-.716.307-.716.682 0 .375.324.682.716.682zm2.336 7.636h1.006v-4.142c0-.886.699-1.534 1.653-1.534.269 0 .546.051.614.068v-1.023a10.212 10.212 0 00-.528-.017c-.784 0-1.466.443-1.705 1.091h-.068v-.988h-.972V475zm4.465 0h1.006v-4.091c0-.959.699-1.636 1.483-1.636.763 0 1.295.498 1.295 1.244V475h1.023v-4.261c0-.844.528-1.466 1.449-1.466.716 0 1.329.379 1.329 1.346V475h1.006v-4.381c0-1.538-.827-2.25-1.994-2.25-.938 0-1.624.431-1.96 1.108h-.069c-.324-.699-.895-1.108-1.755-1.108-.853 0-1.483.409-1.756 1.108h-.085v-1.022h-.972V475zm12.356.153c1.142 0 1.739-.613 1.943-1.039h.051V475h1.006v-4.312c0-2.08-1.585-2.319-2.42-2.319-.989 0-2.114.341-2.625 1.534l.954.341c.222-.477.746-.988 1.705-.988.924 0 1.38.49 1.38 1.329v.034c0 .486-.494.443-1.687.597-1.215.158-2.54.426-2.54 1.926 0 1.278.989 2.011 2.233 2.011zm.153-.903c-.801 0-1.38-.358-1.38-1.057 0-.767.699-1.005 1.483-1.108.426-.051 1.568-.17 1.738-.375v.921c0 .818-.647 1.619-1.841 1.619zm7.529-5.795h-1.398v-1.569h-1.005v1.569h-.989v.852h.989v4.091c0 1.142.92 1.687 1.772 1.687.375 0 .614-.068.75-.119l-.204-.904c-.085.018-.222.052-.443.052-.443 0-.87-.137-.87-.989v-3.818h1.398v-.852zm1.513 6.545h1.006v-6.545h-1.006V475zm.511-7.636c.392 0 .716-.307.716-.682 0-.375-.324-.682-.716-.682-.392 0-.716.307-.716.682 0 .375.324.682.716.682zm4.996 7.772c1.772 0 2.966-1.346 2.966-3.375 0-2.045-1.194-3.392-2.966-3.392-1.773 0-2.966 1.347-2.966 3.392 0 2.029 1.193 3.375 2.966 3.375zm0-.903c-1.347 0-1.961-1.159-1.961-2.472 0-1.312.614-2.488 1.961-2.488 1.346 0 1.96 1.176 1.96 2.488 0 1.313-.614 2.472-1.96 2.472zm5.506-3.171c0-1.142.708-1.789 1.671-1.789.933 0 1.5.609 1.5 1.636V475h1.006v-4.159c0-1.671-.891-2.472-2.216-2.472-.989 0-1.603.443-1.909 1.108h-.086v-1.022h-.971V475h1.005v-3.938zM290.048 448.273v5.778c0 1.364-1.091 2.114-2.335 2.114-1.245 0-2.336-.75-2.336-2.114v-5.778h-1.057v5.778c0 1.96 1.552 3.102 3.393 3.102 1.84 0 3.392-1.142 3.392-3.102v-5.778h-1.057zm7.667 3.647c-.315-.929-1.023-1.551-2.318-1.551-1.381 0-2.404.784-2.404 1.892 0 .904.537 1.509 1.739 1.79l1.091.256c.66.153.972.469.972.92 0 .563-.597 1.023-1.535 1.023-.822 0-1.338-.354-1.517-1.057l-.954.239c.234 1.112 1.15 1.704 2.489 1.704 1.521 0 2.556-.831 2.556-1.96 0-.912-.571-1.487-1.738-1.773l-.972-.238c-.775-.192-1.125-.452-1.125-.955 0-.562.597-.971 1.398-.971.878 0 1.24.485 1.415.937l.903-.256zm4.378 5.216c1.329 0 2.301-.664 2.607-1.653l-.971-.273c-.256.682-.848 1.023-1.636 1.023-1.181 0-1.995-.763-2.042-2.165h4.752v-.426c0-2.437-1.449-3.273-2.813-3.273-1.772 0-2.949 1.398-2.949 3.409 0 2.012 1.159 3.358 3.052 3.358zm-2.042-3.937c.068-1.019.789-1.926 1.939-1.926 1.091 0 1.79.818 1.79 1.926h-3.729zm6.282 3.801h1.005v-4.142c0-.882.699-1.534 1.654-1.534.251 0 .439.047.579.119l.341-.852c-.204-.145-.473-.239-.835-.239-.793 0-1.47.443-1.705 1.091h-.068v-.988h-.971V457zm10.639.136c1.773 0 2.966-1.346 2.966-3.375 0-2.045-1.193-3.392-2.966-3.392-1.773 0-2.966 1.347-2.966 3.392 0 2.029 1.193 3.375 2.966 3.375zm0-.903c-1.346 0-1.96-1.159-1.96-2.472 0-1.312.614-2.488 1.96-2.488 1.347 0 1.96 1.176 1.96 2.488 0 1.313-.613 2.472-1.96 2.472zm4.501 3.222h1.006v-3.461h.085c.222.358.648 1.142 1.909 1.142 1.637 0 2.779-1.312 2.779-3.392 0-2.062-1.142-3.375-2.796-3.375-1.278 0-1.67.784-1.892 1.125h-.119v-1.039h-.972v9zm.989-5.728c0-1.466.648-2.454 1.875-2.454 1.278 0 1.909 1.074 1.909 2.454 0 1.398-.648 2.506-1.909 2.506-1.21 0-1.875-1.023-1.875-2.506zm9.068 3.409c1.33 0 2.301-.664 2.608-1.653l-.972-.273c-.255.682-.848 1.023-1.636 1.023-1.18 0-1.994-.763-2.041-2.165h4.751v-.426c0-2.437-1.449-3.273-2.812-3.273-1.773 0-2.949 1.398-2.949 3.409 0 2.012 1.159 3.358 3.051 3.358zm-2.041-3.937c.068-1.019.788-1.926 1.939-1.926 1.091 0 1.79.818 1.79 1.926h-3.729zm7.287-.137c0-1.142.707-1.789 1.67-1.789.933 0 1.5.609 1.5 1.636V457h1.006v-4.159c0-1.671-.891-2.472-2.216-2.472-.989 0-1.602.443-1.909 1.108h-.085v-1.022h-.972V457h1.006v-3.938zm10.65-1.142c-.315-.929-1.023-1.551-2.318-1.551-1.381 0-2.404.784-2.404 1.892 0 .904.537 1.509 1.739 1.79l1.091.256c.66.153.972.469.972.92 0 .563-.597 1.023-1.535 1.023-.822 0-1.338-.354-1.517-1.057l-.954.239c.234 1.112 1.15 1.704 2.488 1.704 1.522 0 2.557-.831 2.557-1.96 0-.912-.571-1.487-1.738-1.773l-.972-.238c-.776-.192-1.125-.452-1.125-.955 0-.562.597-.971 1.398-.971.878 0 1.24.485 1.415.937l.903-.256zm5.144 5.08h3.154c2.062 0 2.915-1.006 2.915-2.318 0-1.381-.955-2.131-1.756-2.182v-.085c.75-.205 1.415-.699 1.415-1.824 0-1.279-.853-2.318-2.676-2.318h-3.052V457zm1.057-.938v-3.034h2.148c1.142 0 1.858.767 1.858 1.654 0 .767-.528 1.38-1.909 1.38h-2.097zm0-3.954v-2.898h1.995c1.159 0 1.67.614 1.67 1.381 0 .92-.75 1.517-1.704 1.517h-1.961zm8.538 5.045c1.142 0 1.739-.613 1.943-1.039h.051V457h1.006v-4.312c0-2.08-1.585-2.319-2.421-2.319-.988 0-2.113.341-2.625 1.534l.955.341c.222-.477.746-.988 1.705-.988.924 0 1.38.49 1.38 1.329v.034c0 .486-.494.443-1.687.597-1.215.158-2.54.426-2.54 1.926 0 1.278.989 2.011 2.233 2.011zm.153-.903c-.801 0-1.38-.358-1.38-1.057 0-.767.699-1.005 1.483-1.108.426-.051 1.568-.17 1.738-.375v.921c0 .818-.647 1.619-1.841 1.619zm5.688-3.188c0-1.142.708-1.789 1.671-1.789.933 0 1.5.609 1.5 1.636V457h1.005v-4.159c0-1.671-.89-2.472-2.216-2.472-.988 0-1.602.443-1.909 1.108h-.085v-1.022h-.971V457h1.005v-3.938zM374.02 457h1.006v-2.45l.703-.652 2.45 3.102h1.279l-2.971-3.75 2.766-2.795h-1.244l-2.864 2.914h-.119v-5.096h-1.006V457zm10.397 0l.878-2.472h3.528l.878 2.472h1.108l-3.205-8.727h-1.091L383.309 457h1.108zm1.21-3.409l1.398-3.938h.068l1.398 3.938h-2.864zm6.405 5.864h1.005v-3.461h.086c.221.358.647 1.142 1.909 1.142 1.636 0 2.778-1.312 2.778-3.392 0-2.062-1.142-3.375-2.795-3.375-1.279 0-1.671.784-1.892 1.125h-.12v-1.039h-.971v9zm.988-5.728c0-1.466.648-2.454 1.875-2.454 1.279 0 1.91 1.074 1.91 2.454 0 1.398-.648 2.506-1.91 2.506-1.21 0-1.875-1.023-1.875-2.506zm6.324 5.728h1.006v-3.461h.085c.222.358.648 1.142 1.909 1.142 1.637 0 2.779-1.312 2.779-3.392 0-2.062-1.142-3.375-2.796-3.375-1.278 0-1.67.784-1.892 1.125h-.119v-1.039h-.972v9zm.989-5.728c0-1.466.648-2.454 1.875-2.454 1.278 0 1.909 1.074 1.909 2.454 0 1.398-.648 2.506-1.909 2.506-1.21 0-1.875-1.023-1.875-2.506zm-131.242 17.591c0 2.148.579 3.938 1.619 5.455h.887c-.819-1.125-1.466-3.426-1.466-5.455 0-2.028.647-4.329 1.466-5.454h-.887c-1.04 1.517-1.619 3.306-1.619 5.454zm3.99 6.137h1.005v-3.461h.086c.221.358.647 1.142 1.909 1.142 1.636 0 2.778-1.312 2.778-3.392 0-2.062-1.142-3.375-2.795-3.375-1.279 0-1.671.784-1.892 1.125h-.12v-1.039h-.971v9zm.988-5.728c0-1.466.648-2.454 1.875-2.454 1.279 0 1.909 1.074 1.909 2.454 0 1.398-.647 2.506-1.909 2.506-1.21 0-1.875-1.023-1.875-2.506zm8.25 3.426c1.142 0 1.739-.613 1.943-1.039h.052V475h1.005v-4.312c0-2.08-1.585-2.319-2.42-2.319-.989 0-2.114.341-2.625 1.534l.954.341c.222-.477.746-.988 1.705-.988.925 0 1.381.49 1.381 1.329v.034c0 .486-.495.443-1.688.597-1.214.158-2.54.426-2.54 1.926 0 1.278.989 2.011 2.233 2.011zm.154-.903c-.801 0-1.381-.358-1.381-1.057 0-.767.699-1.005 1.483-1.108.426-.051 1.568-.17 1.739-.375v.921c0 .818-.648 1.619-1.841 1.619zm5.061 3.29c.921 0 1.551-.478 1.926-1.483l2.813-7.602h-1.091l-1.807 5.215h-.068l-1.807-5.215h-1.091l2.421 6.579-.222.614c-.354.98-.818 1.074-1.551.886l-.256.886c.102.052.392.12.733.12zM293.6 475h1.006v-4.091c0-.959.699-1.636 1.483-1.636.763 0 1.295.498 1.295 1.244V475h1.023v-4.261c0-.844.528-1.466 1.449-1.466.716 0 1.329.379 1.329 1.346V475h1.006v-4.381c0-1.538-.827-2.25-1.994-2.25-.938 0-1.624.431-1.96 1.108h-.069c-.324-.699-.895-1.108-1.755-1.108-.853 0-1.483.409-1.756 1.108h-.085v-1.022h-.972V475zm13.174.136c1.33 0 2.301-.664 2.608-1.653l-.971-.273c-.256.682-.849 1.023-1.637 1.023-1.18 0-1.994-.763-2.041-2.165h4.751v-.426c0-2.437-1.448-3.273-2.812-3.273-1.773 0-2.949 1.398-2.949 3.409 0 2.012 1.159 3.358 3.051 3.358zm-2.041-3.937c.068-1.019.788-1.926 1.939-1.926 1.091 0 1.79.818 1.79 1.926h-3.729zm7.287-.137c0-1.142.707-1.789 1.67-1.789.934 0 1.5.609 1.5 1.636V475h1.006v-4.159c0-1.671-.891-2.472-2.216-2.472-.989 0-1.602.443-1.909 1.108h-.085v-1.022h-.972V475h1.006v-3.938zm8.86-2.607h-1.397v-1.569h-1.006v1.569h-.989v.852h.989v4.091c0 1.142.92 1.687 1.773 1.687a2.1 2.1 0 00.75-.119l-.205-.904c-.085.018-.221.052-.443.052-.443 0-.869-.137-.869-.989v-3.818h1.397v-.852zm4.888 6.545h1.006v-6.545h-1.006V475zm.511-7.636c.393 0 .716-.307.716-.682 0-.375-.323-.682-.716-.682-.392 0-.715.307-.715.682 0 .375.323.682.715.682zm6.973 2.556c-.315-.929-1.023-1.551-2.318-1.551-1.381 0-2.403.784-2.403 1.892 0 .904.536 1.509 1.738 1.79l1.091.256c.661.153.972.469.972.92 0 .563-.597 1.023-1.534 1.023-.823 0-1.338-.354-1.517-1.057l-.955.239c.234 1.112 1.151 1.704 2.489 1.704 1.521 0 2.556-.831 2.556-1.96 0-.912-.571-1.487-1.738-1.773l-.972-.238c-.775-.192-1.125-.452-1.125-.955 0-.562.597-.971 1.398-.971.878 0 1.24.485 1.415.937l.903-.256zm5.008 7.535h1.006v-3.461h.085c.222.358.648 1.142 1.909 1.142 1.637 0 2.779-1.312 2.779-3.392 0-2.062-1.142-3.375-2.796-3.375-1.278 0-1.67.784-1.892 1.125h-.119v-1.039h-.972v9zm.989-5.728c0-1.466.648-2.454 1.875-2.454 1.278 0 1.909 1.074 1.909 2.454 0 1.398-.648 2.506-1.909 2.506-1.21 0-1.875-1.023-1.875-2.506zm6.324 3.273h1.005v-4.142c0-.882.699-1.534 1.654-1.534.251 0 .439.047.579.119l.341-.852c-.204-.145-.473-.239-.835-.239-.792 0-1.47.443-1.704 1.091h-.069v-.988h-.971V475zm7.15.136c1.33 0 2.302-.664 2.608-1.653l-.971-.273c-.256.682-.848 1.023-1.637 1.023-1.18 0-1.994-.763-2.041-2.165h4.752v-.426c0-2.437-1.449-3.273-2.813-3.273-1.773 0-2.949 1.398-2.949 3.409 0 2.012 1.159 3.358 3.051 3.358zm-2.041-3.937c.068-1.019.789-1.926 1.939-1.926 1.091 0 1.79.818 1.79 1.926h-3.729zm10.031-.409h-3.818v.937h3.818v-.937zm4.685-2.335h-1.466v-.665c0-.648.273-.989.937-.989.29 0 .461.068.563.102l.29-.869c-.154-.068-.461-.17-.955-.17-.937 0-1.841.562-1.841 1.687v.904h-1.057v.852h1.057V475h1.006v-5.693h1.466v-.852zm1.409 6.545h1.006v-6.545h-1.006V475zm.512-7.636c.392 0 .715-.307.715-.682 0-.375-.323-.682-.715-.682-.393 0-.716.307-.716.682 0 .375.323.682.716.682zm3.342-1.091h-1.006V475h1.006v-8.727zm2.847 0h-1.006V475h1.006v-8.727zm4.586 8.863c1.33 0 2.302-.664 2.608-1.653l-.971-.273c-.256.682-.848 1.023-1.637 1.023-1.18 0-1.994-.763-2.041-2.165h4.752v-.426c0-2.437-1.449-3.273-2.813-3.273-1.773 0-2.949 1.398-2.949 3.409 0 2.012 1.159 3.358 3.051 3.358zm-2.041-3.937c.068-1.019.789-1.926 1.939-1.926 1.091 0 1.79.818 1.79 1.926h-3.729zm8.753 3.937c1.261 0 1.688-.784 1.909-1.142h.12V475h.971v-8.727H386.8v3.221h-.085c-.221-.341-.613-1.125-1.892-1.125-1.653 0-2.795 1.313-2.795 3.375 0 2.08 1.142 3.392 2.778 3.392zm.136-.903c-1.261 0-1.909-1.108-1.909-2.506 0-1.38.631-2.454 1.909-2.454 1.228 0 1.875.988 1.875 2.454 0 1.483-.664 2.506-1.875 2.506zm6.993-2.915c0-2.148-.579-3.937-1.619-5.454h-.886c.818 1.125 1.466 3.426 1.466 5.454 0 2.029-.648 4.33-1.466 5.455h.886c1.04-1.517 1.619-3.307 1.619-5.455zm3.7 2.489h-1.091l-.051.477c-.123 1.155-.366 2.305-.477 2.847h.767c.205-.58.639-1.892.784-2.864l.068-.46zm7.165 1.346c1.142 0 1.738-.613 1.943-1.039h.051V475h1.006v-4.312c0-2.08-1.586-2.319-2.421-2.319-.988 0-2.113.341-2.625 1.534l.955.341c.221-.477.746-.988 1.704-.988.925 0 1.381.49 1.381 1.329v.034c0 .486-.494.443-1.687.597-1.215.158-2.54.426-2.54 1.926 0 1.278.988 2.011 2.233 2.011zm.153-.903c-.801 0-1.381-.358-1.381-1.057 0-.767.699-1.005 1.483-1.108.427-.051 1.569-.17 1.739-.375v.921c0 .818-.648 1.619-1.841 1.619zm5.688-3.188c0-1.142.707-1.789 1.67-1.789.934 0 1.5.609 1.5 1.636V475h1.006v-4.159c0-1.671-.891-2.472-2.216-2.472-.988 0-1.602.443-1.909 1.108h-.085v-1.022h-.972V475h1.006v-3.938zm8.485 4.074c1.262 0 1.688-.784 1.91-1.142h.119V475h.971v-8.727h-1.005v3.221h-.085c-.222-.341-.614-1.125-1.893-1.125-1.653 0-2.795 1.313-2.795 3.375 0 2.08 1.142 3.392 2.778 3.392zm.137-.903c-1.262 0-1.909-1.108-1.909-2.506 0-1.38.63-2.454 1.909-2.454 1.227 0 1.875.988 1.875 2.454 0 1.483-.665 2.506-1.875 2.506zm-94.057 18.92c1.142 0 1.739-.613 1.943-1.039h.051V493h1.006v-4.312c0-2.08-1.585-2.319-2.42-2.319-.989 0-2.114.341-2.625 1.534l.954.341c.222-.477.746-.988 1.705-.988.924 0 1.38.49 1.38 1.329v.034c0 .486-.494.443-1.687.597-1.215.158-2.54.426-2.54 1.926 0 1.278.989 2.011 2.233 2.011zm.153-.903c-.801 0-1.38-.358-1.38-1.057 0-.767.699-1.005 1.483-1.108.426-.051 1.568-.17 1.738-.375v.921c0 .818-.647 1.619-1.841 1.619zm7.342.886c1.449 0 2.403-.886 2.574-2.045h-1.006c-.188.716-.784 1.142-1.568 1.142-1.194 0-1.961-.989-1.961-2.506 0-1.483.785-2.454 1.961-2.454.886 0 1.414.545 1.568 1.142h1.006c-.171-1.227-1.211-2.046-2.591-2.046-1.773 0-2.949 1.398-2.949 3.392 0 1.961 1.125 3.375 2.966 3.375zm6.703 0c1.449 0 2.403-.886 2.574-2.045h-1.006c-.188.716-.784 1.142-1.568 1.142-1.193 0-1.96-.989-1.96-2.506 0-1.483.784-2.454 1.96-2.454.886 0 1.415.545 1.568 1.142h1.006c-.171-1.227-1.211-2.046-2.591-2.046-1.773 0-2.949 1.398-2.949 3.392 0 1.961 1.125 3.375 2.966 3.375zm6.788 0c1.33 0 2.301-.664 2.608-1.653l-.972-.273c-.255.682-.848 1.023-1.636 1.023-1.18 0-1.994-.763-2.041-2.165h4.751v-.426c0-2.437-1.449-3.273-2.812-3.273-1.773 0-2.949 1.398-2.949 3.409 0 2.012 1.159 3.358 3.051 3.358zm-2.041-3.937c.068-1.019.788-1.926 1.939-1.926 1.091 0 1.79.818 1.79 1.926h-3.729zm6.281 6.256h1.006v-3.461h.085c.222.358.648 1.142 1.909 1.142 1.637 0 2.779-1.312 2.779-3.392 0-2.062-1.142-3.375-2.796-3.375-1.278 0-1.67.784-1.892 1.125h-.119v-1.039h-.972v9zm.989-5.728c0-1.466.648-2.454 1.875-2.454 1.278 0 1.909 1.074 1.909 2.454 0 1.398-.648 2.506-1.909 2.506-1.21 0-1.875-1.023-1.875-2.506zm9.17-3.272h-1.397v-1.569h-1.006v1.569h-.989v.852h.989v4.091c0 1.142.92 1.687 1.773 1.687a2.1 2.1 0 00.75-.119l-.205-.904c-.085.018-.222.052-.443.052-.443 0-.869-.137-.869-.989v-3.818h1.397v-.852zm6.032 1.465c-.315-.929-1.023-1.551-2.318-1.551-1.381 0-2.403.784-2.403 1.892 0 .904.537 1.509 1.738 1.79l1.091.256c.661.153.972.469.972.92 0 .563-.597 1.023-1.534 1.023-.823 0-1.338-.354-1.517-1.057l-.955.239c.234 1.112 1.151 1.704 2.489 1.704 1.521 0 2.557-.831 2.557-1.96 0-.912-.571-1.487-1.739-1.773l-.972-.238c-.775-.192-1.125-.452-1.125-.955 0-.562.597-.971 1.398-.971.878 0 1.24.485 1.415.937l.903-.256zm2.366 5.148a.77.77 0 00.767-.767.77.77 0 00-.767-.767.77.77 0 00-.767.767.77.77 0 00.767.767zM57.063 457.273v5.778c0 1.364-1.09 2.114-2.335 2.114-1.244 0-2.335-.75-2.335-2.114v-5.778h-1.057v5.778c0 1.96 1.551 3.102 3.392 3.102s3.392-1.142 3.392-3.102v-5.778h-1.057zm7.668 3.647c-.316-.929-1.023-1.551-2.318-1.551-1.381 0-2.404.784-2.404 1.892 0 .904.537 1.509 1.739 1.79l1.09.256c.661.153.972.469.972.92 0 .563-.596 1.023-1.534 1.023-.822 0-1.338-.354-1.517-1.057l-.955.239c.235 1.112 1.151 1.704 2.49 1.704 1.52 0 2.556-.831 2.556-1.96 0-.912-.571-1.487-1.739-1.773l-.971-.238c-.776-.192-1.125-.452-1.125-.955 0-.562.596-.971 1.398-.971.877 0 1.24.485 1.414.937l.904-.256zm4.377 5.216c1.33 0 2.301-.664 2.608-1.653l-.971-.273c-.256.682-.849 1.023-1.637 1.023-1.18 0-1.994-.763-2.041-2.165h4.751v-.426c0-2.437-1.448-3.273-2.812-3.273-1.773 0-2.949 1.398-2.949 3.409 0 2.012 1.16 3.358 3.051 3.358zm-2.041-3.937c.068-1.019.788-1.926 1.939-1.926 1.09 0 1.79.818 1.79 1.926h-3.73zM73.348 466h1.006v-4.142c0-.882.699-1.534 1.653-1.534.252 0 .44.047.58.119l.34-.852c-.204-.145-.472-.239-.835-.239-.792 0-1.47.443-1.704 1.091h-.068v-.988h-.972V466zm7.98 0h1.006v-4.142c0-.882.7-1.534 1.654-1.534.251 0 .439.047.58.119l.34-.852c-.204-.145-.473-.239-.835-.239-.793 0-1.47.443-1.705 1.091H82.3v-.988h-.971V466zm7.151.136c1.33 0 2.301-.664 2.608-1.653l-.971-.273c-.256.682-.848 1.023-1.637 1.023-1.18 0-1.994-.763-2.041-2.165h4.751v-.426c0-2.437-1.448-3.273-2.812-3.273-1.773 0-2.949 1.398-2.949 3.409 0 2.012 1.16 3.358 3.051 3.358zm-2.041-3.937c.068-1.019.788-1.926 1.939-1.926 1.09 0 1.79.818 1.79 1.926h-3.729zm8.94 3.937c1.45 0 2.404-.886 2.574-2.045h-1.005c-.188.716-.785 1.142-1.569 1.142-1.193 0-1.96-.989-1.96-2.506 0-1.483.784-2.454 1.96-2.454.887 0 1.415.545 1.569 1.142h1.005c-.17-1.227-1.21-2.046-2.59-2.046-1.773 0-2.95 1.398-2.95 3.392 0 1.961 1.125 3.375 2.966 3.375zm6.789 0c1.329 0 2.301-.664 2.608-1.653l-.972-.273c-.256.682-.848 1.023-1.636 1.023-1.181 0-1.995-.763-2.041-2.165h4.751v-.426c0-2.437-1.449-3.273-2.813-3.273-1.772 0-2.948 1.398-2.948 3.409 0 2.012 1.159 3.358 3.051 3.358zm-2.041-3.937c.068-1.019.788-1.926 1.938-1.926 1.091 0 1.79.818 1.79 1.926h-3.728zm6.281 3.801h1.005v-6.545h-1.005V466zm.511-7.636c.392 0 .716-.307.716-.682 0-.375-.324-.682-.716-.682-.392 0-.716.307-.716.682 0 .375.324.682.716.682zm7.689 1.091h-1.091l-1.807 5.215h-.068l-1.807-5.215h-1.091l2.421 6.545h1.022l2.421-6.545zm3.837 6.681c1.33 0 2.301-.664 2.608-1.653l-.972-.273c-.255.682-.848 1.023-1.636 1.023-1.18 0-1.994-.763-2.041-2.165h4.751v-.426c0-2.437-1.449-3.273-2.812-3.273-1.773 0-2.949 1.398-2.949 3.409 0 2.012 1.159 3.358 3.051 3.358zm-2.041-3.937c.068-1.019.788-1.926 1.939-1.926 1.091 0 1.79.818 1.79 1.926h-3.729zm10.917-1.279c-.315-.929-1.022-1.551-2.318-1.551-1.38 0-2.403.784-2.403 1.892 0 .904.537 1.509 1.739 1.79l1.09.256c.661.153.972.469.972.92 0 .563-.597 1.023-1.534 1.023-.822 0-1.338-.354-1.517-1.057l-.955.239c.235 1.112 1.151 1.704 2.489 1.704 1.521 0 2.557-.831 2.557-1.96 0-.912-.571-1.487-1.739-1.773l-.971-.238c-.776-.192-1.125-.452-1.125-.955 0-.562.596-.971 1.397-.971.878 0 1.24.485 1.415.937l.903-.256zm5.009 7.535h1.005v-3.461h.086c.221.358.647 1.142 1.909 1.142 1.636 0 2.778-1.312 2.778-3.392 0-2.062-1.142-3.375-2.795-3.375-1.279 0-1.671.784-1.892 1.125h-.12v-1.039h-.971v9zm.988-5.728c0-1.466.648-2.454 1.875-2.454 1.279 0 1.909 1.074 1.909 2.454 0 1.398-.647 2.506-1.909 2.506-1.21 0-1.875-1.023-1.875-2.506zm8.25 3.426c1.142 0 1.739-.613 1.943-1.039h.052V466h1.005v-4.312c0-2.08-1.585-2.319-2.42-2.319-.989 0-2.114.341-2.625 1.534l.954.341c.222-.477.746-.988 1.705-.988.925 0 1.381.49 1.381 1.329v.034c0 .486-.495.443-1.688.597-1.214.158-2.54.426-2.54 1.926 0 1.278.989 2.011 2.233 2.011zm.154-.903c-.801 0-1.381-.358-1.381-1.057 0-.767.699-1.005 1.483-1.108.426-.051 1.568-.17 1.739-.375v.921c0 .818-.648 1.619-1.841 1.619zm5.061 3.29c.921 0 1.551-.478 1.926-1.483l2.813-7.602h-1.091l-1.807 5.215h-.068l-1.807-5.215h-1.091l2.421 6.579-.222.614c-.354.98-.818 1.074-1.551.886l-.256.886c.102.052.392.12.733.12zm6.066-2.54h1.006v-4.091c0-.959.699-1.636 1.483-1.636.763 0 1.295.498 1.295 1.244V466h1.023v-4.261c0-.844.528-1.466 1.449-1.466.716 0 1.329.379 1.329 1.346V466h1.006v-4.381c0-1.538-.827-2.25-1.994-2.25-.938 0-1.624.431-1.96 1.108h-.069c-.323-.699-.895-1.108-1.755-1.108-.853 0-1.483.409-1.756 1.108h-.085v-1.022h-.972V466zm13.174.136c1.33 0 2.301-.664 2.608-1.653l-.971-.273c-.256.682-.848 1.023-1.637 1.023-1.18 0-1.994-.763-2.041-2.165h4.751v-.426c0-2.437-1.448-3.273-2.812-3.273-1.773 0-2.949 1.398-2.949 3.409 0 2.012 1.159 3.358 3.051 3.358zm-2.041-3.937c.068-1.019.788-1.926 1.939-1.926 1.091 0 1.79.818 1.79 1.926h-3.729zm7.287-.137c0-1.142.707-1.789 1.67-1.789.934 0 1.5.609 1.5 1.636V466h1.006v-4.159c0-1.671-.891-2.472-2.216-2.472-.988 0-1.602.443-1.909 1.108h-.085v-1.022h-.972V466h1.006v-3.938zm8.86-2.607h-1.397v-1.569h-1.006v1.569h-.989v.852h.989v4.091c0 1.142.92 1.687 1.773 1.687a2.1 2.1 0 00.75-.119l-.205-.904c-.085.018-.221.052-.443.052-.443 0-.869-.137-.869-.989v-3.818h1.397v-.852zM91.055 484h1.006v-4.142c0-.882.699-1.534 1.653-1.534.252 0 .44.047.58.119l.34-.852c-.204-.145-.472-.239-.835-.239-.792 0-1.47.443-1.704 1.091h-.068v-.988h-.972V484zm7.15.136c1.33 0 2.302-.664 2.609-1.653l-.972-.273c-.255.682-.848 1.023-1.636 1.023-1.18 0-1.995-.763-2.041-2.165h4.751v-.426c0-2.437-1.449-3.273-2.813-3.273-1.772 0-2.948 1.398-2.948 3.409 0 2.012 1.159 3.358 3.05 3.358zm-2.04-3.937c.068-1.019.788-1.926 1.938-1.926 1.091 0 1.79.818 1.79 1.926h-3.728zm6.281 3.801h1.006v-4.091c0-.959.698-1.636 1.482-1.636.763 0 1.296.498 1.296 1.244V484h1.023v-4.261c0-.844.528-1.466 1.449-1.466.715 0 1.329.379 1.329 1.346V484h1.006v-4.381c0-1.538-.827-2.25-1.995-2.25-.937 0-1.623.431-1.96 1.108h-.068c-.324-.699-.895-1.108-1.756-1.108-.852 0-1.483.409-1.755 1.108h-.086v-1.022h-.971V484zm10.43 0h1.005v-6.545h-1.005V484zm.511-7.636c.392 0 .716-.307.716-.682 0-.375-.324-.682-.716-.682-.392 0-.716.307-.716.682 0 .375.324.682.716.682zm3.342 3.698c0-1.142.707-1.789 1.67-1.789.934 0 1.5.609 1.5 1.636V484h1.006v-4.159c0-1.671-.891-2.472-2.216-2.472-.989 0-1.602.443-1.909 1.108h-.085v-1.022h-.972V484h1.006v-3.938zm8.485 4.074c1.262 0 1.688-.784 1.909-1.142h.12V484h.971v-8.727h-1.005v3.221h-.086c-.221-.341-.613-1.125-1.892-1.125-1.653 0-2.795 1.313-2.795 3.375 0 2.08 1.142 3.392 2.778 3.392zm.137-.903c-1.262 0-1.909-1.108-1.909-2.506 0-1.38.63-2.454 1.909-2.454 1.227 0 1.875.988 1.875 2.454 0 1.483-.665 2.506-1.875 2.506zm7.589.903c1.33 0 2.301-.664 2.608-1.653l-.971-.273c-.256.682-.848 1.023-1.637 1.023-1.18 0-1.994-.763-2.041-2.165h4.751v-.426c0-2.437-1.448-3.273-2.812-3.273-1.773 0-2.949 1.398-2.949 3.409 0 2.012 1.159 3.358 3.051 3.358zm-2.041-3.937c.068-1.019.788-1.926 1.939-1.926 1.091 0 1.79.818 1.79 1.926h-3.729zM137.18 484h1.006v-4.142c0-.882.699-1.534 1.653-1.534.252 0 .439.047.58.119l.341-.852c-.205-.145-.473-.239-.835-.239-.793 0-1.471.443-1.705 1.091h-.068v-.988h-.972V484z" fill="#747C84"/><path d="M490.354 86.354a.5.5 0 000-.708l-3.182-3.181a.501.501 0 00-.708.707L489.293 86l-2.829 2.828a.5.5 0 00.708.707l3.182-3.181zM433 86.5h57v-1h-57v1zM253.354 374.354a.502.502 0 000-.708l-3.182-3.182a.502.502 0 00-.708.708l2.829 2.828-2.829 2.828a.502.502 0 00.708.708l3.182-3.182zM196 374.5h57v-1h-57v1zM253.354 86.354a.5.5 0 000-.708l-3.182-3.181a.501.501 0 00-.708.707L252.293 86l-2.829 2.828a.5.5 0 00.708.707l3.182-3.181zM196 86.5h57v-1h-57v1zM490.354 374.354a.502.502 0 000-.708l-3.182-3.182a.502.502 0 00-.708.708l2.829 2.828-2.829 2.828a.502.502 0 00.708.708l3.182-3.182zM433 374.5h57v-1h-57v1zM111.646 286.354a.502.502 0 00.708 0l3.182-3.182a.502.502 0 00-.708-.708L112 285.293l-2.828-2.829a.502.502 0 00-.708.708l3.182 3.182zM111.5 260v26h1v-26h-1z" fill="#16E9C2"/><path d="M112 260h473v-20" stroke="#16E9C2"/><circle cx="113.5" cy="93.5" r="60.5" stroke="#0C0055" stroke-width="2"/><path d="M145.097 62c2.418.847 4.394 2.205 5.404 4.678.288.706.491 1.419.491 2.19-.004 12.94 0 25.88-.004 38.819 0 2.846-2.662 5.891-5.757 6.649a8.355 8.355 0 01-2.033.231c-6.658-.012-13.316-.012-19.974 0-.446 0-1.14-.243-1.039.64.325 2.935.642 5.87 2.95 8.1.763.734 1.643 1.155 2.666 1.281.819.101 1.213.466 1.16 1.346-.057.884-.54 1.062-1.298 1.062-9.133-.008-18.262-.008-27.395 0-.722 0-1.164-.203-1.237-1.014-.077-.859.272-1.305 1.111-1.386 2.114-.203 3.344-1.609 4.236-3.304.893-1.694 1.144-3.604 1.432-5.481.147-.952-.162-1.289-1.205-1.277-6.475.053-12.954-.073-19.426.069-3.51.077-7.31-2.416-7.98-5.695-.016-.086-.13-.155-.199-.232V69.123c0-.848.146-1.695.483-2.473 0-.004.004-.008.004-.012.807-1.804 2.09-3.04 3.696-3.9A6.372 6.372 0 0184.206 62h60.891zm3.493 6.94c-.637-2.854-2.933-4.597-6.155-4.58-19.04.08-38.081.072-57.122.003-2.872-.012-5.347 1.736-5.903 4.602a3.664 3.664 0 00-.004 2.436c0 8.923-.004 17.85-.004 26.772-.288.823-.377 1.646-.004 2.469 0 1.998-.004 3.997 0 5.995.004 3.004 2.446 5.518 5.449 5.518 19.414.012 38.827.008 58.245.004 2.106 0 4.902-1.61 5.315-4.2.39-2.449.122-4.913.142-7.37l-.024-2.351c.024-.726.065-1.448.065-2.173.016-8.1.028-16.2.041-24.3.312-.944.284-1.884-.041-2.825zm-25.938 55.583c-2.004-2.854-2.86-5.939-2.86-9.263 0-.734-.402-.701-.901-.701-3.015.008-6.029.004-9.04.004-1.631 0-1.626 0-1.643 1.581a7.978 7.978 0 01-.101 1.07c-.382 2.603-1.104 5.067-2.812 7.313 5.839-.004 11.515-.004 17.357-.004z" fill="#0C0055"/><path d="M79.41 68.965c19.458.004 38.916.012 58.379.012 3.598 0 7.201-.025 10.8-.037.325.937.353 1.881.041 2.826-.033-.179-.065-.37-.301-.377-.255-.012-.507-.012-.762-.012H80.062c-.219 0-.434.016-.653.02a3.677 3.677 0 010-2.432zM148.549 100.589c-19.122.004-38.248.008-57.37.016-3.927 0-7.85.025-11.778.037-.373-.823-.284-1.646.004-2.47.47.013.945.03 1.416.03 22.096 0 44.196 0 66.291.003.471 0 .946.02 1.416.033 0 .782.008 1.569.021 2.351zM114.021 109.763c-1.809.004-3.529-1.601-3.359-3.308.199-1.999 1.335-3.251 3.359-3.243 2.281.008 3.21 1.65 3.323 3.292.114 1.682-1.598 3.255-3.323 3.259zm-.085-4.18c-.349.211-.702.406-.71.941-.008.547.459.742.767.742s.783-.195.767-.742c-.016-.515-.317-.762-.824-.941z" fill="#16E9C2"/><circle cx="52.5" cy="93.5" r="13.5" fill="#16E9C2"/><path d="M50.95 89.2l-2.52 4.424h1.933l1.372-2.464h.168V99h1.848v-9.8h-2.8z" fill="#0C0055"/><circle cx="355.5" cy="93.5" r="60.5" stroke="#0C0055" stroke-width="2"/><circle cx="113.5" cy="373.5" r="60.5" stroke="#0C0055" stroke-width="2"/><circle cx="590.5" cy="93.5" r="60.5" stroke="#0C0055" stroke-width="2"/><circle cx="294.5" cy="94.5" r="13.5" fill="#16E9C2"/><path d="M289.913 93.476v.336h1.848v-.308c0-1.274.854-1.848 1.862-1.848s1.666.574 1.666 1.54c0 1.148-.84 1.61-2.24 1.988-1.806.49-3.08 1.358-3.08 3.136V100h7.112v-1.68h-5.264v-.168c0-.91.728-1.204 2.1-1.554 2.058-.518 3.22-1.414 3.22-3.346 0-2.016-1.638-3.248-3.542-3.248-1.988 0-3.682 1.176-3.682 3.472z" fill="#0C0055"/><circle cx="529.5" cy="94.5" r="13.5" fill="#16E9C2"/><path d="M525.026 90.2v1.68h4.438l-2.422 1.988v1.652h1.708c.938 0 1.596.462 1.596 1.4s-.686 1.624-1.848 1.624c-1.246 0-1.904-.784-1.904-1.736v-.336h-1.848v.392c0 1.946 1.414 3.332 3.752 3.332 2.184 0 3.696-1.288 3.696-3.276 0-1.778-1.218-2.716-2.576-2.716h-.364v-.168l2.716-2.212V90.2h-6.944z" fill="#0C0055"/><path d="M374.47 110.712h-37.929a4.16 4.16 0 01.067-2.744h37.806c.349.878.368 1.853.056 2.744zM336.553 67.907H374.381c.287.808.314 1.685.078 2.51H336.53a3.619 3.619 0 01.023-2.51zM359.845 117.674c.41 2.532-2.22 4.462-4.328 4.574a4.714 4.714 0 01-3.167-1.33 4.76 4.76 0 01-1.438-3.133 4.564 4.564 0 011.314-3.251 4.496 4.496 0 013.224-1.345 4.226 4.226 0 013.178 1.271 4.284 4.284 0 011.217 3.214zm-2.541.167a2.14 2.14 0 00-.53-1.375 2.118 2.118 0 00-1.29-.7 2.514 2.514 0 00-1.263.651 2.54 2.54 0 00-.713 1.234c.016.487.202.952.524 1.315a2.06 2.06 0 001.241.671 2.055 2.055 0 001.349-.517 2.08 2.08 0 00.682-1.279zM355.361 62.853h5.471c.877 0 1.498.256 1.52 1.238.023.982-.61 1.294-1.564 1.294h-10.82c-.887 0-1.331-.279-1.342-1.238-.011-.96.444-1.328 1.387-1.305 1.742.033 3.573.01 5.348.01zM346.806 64.08c.011 1.205-.499 1.73-1.709 1.73-1.209 0-1.709-.48-1.72-1.652-.011-1.171.499-1.696 1.72-1.763 1.221-.067 1.698.502 1.709 1.685z" fill="#16E9C2"/><path d="M335.165 123.073a10.64 10.64 0 01-1.109-5.031c-.056-19.356.155-53.817.155-53.95 0-4.028 4.294-6.092 7.668-6.092 9.166.067 18.332 0 27.498 0a7.626 7.626 0 015.377 2.255 7.708 7.708 0 012.235 5.41v53.437a7.828 7.828 0 01-2.064 5.053 9.15 9.15 0 01-3.984 2.533 4.587 4.587 0 01-1.598.29h-26.632a9.357 9.357 0 01-4.882-1.283 7.217 7.217 0 01-2.309-2.165 4.262 4.262 0 01-.355-.457zm39.305-56.717c-.1-3.001-2.741-5.79-5.471-5.801h-27.054a5.281 5.281 0 00-2.365.615c-.73.387-1.36.94-1.84 1.616a6.732 6.732 0 00-1.188 5.12c-.288.848 0 27.02 0 39.259 0 .256.123 8.512 0 10.988a6.226 6.226 0 001.817 4.526 6.175 6.175 0 004.509 1.811h25.245a6.056 6.056 0 004.615-1.775 6.101 6.101 0 001.765-4.64v-10.453c-.033-12.406-.011-40.697-.033-41.266z" fill="#0C0055"/><path d="M132.47 390.712H94.541a4.159 4.159 0 01.067-2.744h37.806c.349.878.368 1.853.056 2.744zM94.553 347.907H132.38c.287.808.314 1.685.078 2.51H94.53a3.621 3.621 0 01.023-2.51zM117.845 397.674c.41 2.532-2.22 4.462-4.328 4.574a4.714 4.714 0 01-3.167-1.33 4.76 4.76 0 01-1.438-3.133 4.564 4.564 0 011.314-3.251 4.496 4.496 0 013.224-1.345 4.226 4.226 0 013.178 1.271 4.284 4.284 0 011.217 3.214zm-2.541.167a2.14 2.14 0 00-.53-1.375 2.113 2.113 0 00-1.29-.7 2.514 2.514 0 00-1.263.651 2.54 2.54 0 00-.713 1.234c.016.487.202.952.524 1.315a2.06 2.06 0 001.241.671 2.06 2.06 0 001.349-.517 2.08 2.08 0 00.682-1.279zM113.361 342.853h5.471c.877 0 1.498.256 1.52 1.238.023.982-.61 1.294-1.564 1.294h-10.82c-.887 0-1.331-.279-1.342-1.238-.011-.959.444-1.328 1.387-1.305 1.742.033 3.573.011 5.348.011zM104.806 344.08c.011 1.205-.499 1.729-1.709 1.729-1.209 0-1.709-.479-1.72-1.651-.011-1.171.499-1.696 1.72-1.763 1.221-.066 1.698.503 1.709 1.685z" fill="#16E9C2"/><path d="M93.165 403.073a10.645 10.645 0 01-1.11-5.031c-.055-19.356.156-53.817.156-53.951 0-4.027 4.294-6.091 7.668-6.091 9.166.067 18.332 0 27.498 0a7.625 7.625 0 015.377 2.255 7.708 7.708 0 012.235 5.409v53.438a7.828 7.828 0 01-2.064 5.053 9.15 9.15 0 01-3.984 2.533 4.587 4.587 0 01-1.598.29h-26.632a9.36 9.36 0 01-4.882-1.283 7.21 7.21 0 01-2.308-2.165 4.138 4.138 0 01-.356-.457zm39.305-56.717c-.1-3.001-2.741-5.79-5.471-5.801H99.946a5.283 5.283 0 00-2.366.615c-.73.387-1.36.941-1.84 1.616a6.712 6.712 0 00-1.188 5.121c-.288.847 0 27.019 0 39.258 0 .256.122 8.512 0 10.988a6.244 6.244 0 001.817 4.526 6.177 6.177 0 004.509 1.811h25.245a6.056 6.056 0 004.615-1.775 6.101 6.101 0 001.765-4.64v-10.453c-.033-12.406-.011-40.697-.033-41.266z" fill="#0C0055"/><mask id="a" fill="#fff"><path fill-rule="evenodd" clip-rule="evenodd" d="M123.771 377.282A12.944 12.944 0 00126 370c0-7.18-5.82-13-13-13s-13 5.82-13 13 5.82 13 13 13c2.616 0 5.051-.772 7.09-2.102l5.436 1.727-1.755-5.343z"/></mask><path d="M123.771 377.282l-1.656-1.122-.551.813.307.933 1.9-.624zm-3.681 3.616l.606-1.906-.904-.287-.794.518 1.092 1.675zm5.436 1.727l-.605 1.906 3.725 1.184-1.22-3.714-1.9.624zM124 370a10.94 10.94 0 01-1.885 6.16l3.312 2.244A14.945 14.945 0 00128 370h-4zm-11-11c6.075 0 11 4.925 11 11h4c0-8.284-6.716-15-15-15v4zm-11 11c0-6.075 4.925-11 11-11v-4c-8.284 0-15 6.716-15 15h4zm11 11c-6.075 0-11-4.925-11-11h-4c0 8.284 6.716 15 15 15v-4zm5.998-1.777A10.94 10.94 0 01113 381v4c3.015 0 5.828-.892 8.182-2.426l-2.184-3.351zm7.134 1.496l-5.436-1.727-1.212 3.812 5.437 1.727 1.211-3.812zm-4.261-2.813l1.755 5.343 3.8-1.248-1.755-5.343-3.8 1.248z" fill="#16E9C2" mask="url(#a)"/><path d="M609.47 110.712h-37.929a4.16 4.16 0 01.067-2.744h37.806c.349.878.368 1.853.056 2.744zM571.553 67.907H609.381c.287.808.314 1.685.078 2.51H571.53a3.619 3.619 0 01.023-2.51zM594.845 117.674c.41 2.532-2.22 4.462-4.328 4.574a4.714 4.714 0 01-3.167-1.33 4.76 4.76 0 01-1.438-3.133 4.564 4.564 0 011.314-3.251 4.496 4.496 0 013.224-1.345 4.226 4.226 0 013.178 1.271 4.284 4.284 0 011.217 3.214zm-2.541.167a2.14 2.14 0 00-.53-1.375 2.118 2.118 0 00-1.29-.7 2.514 2.514 0 00-1.263.651 2.54 2.54 0 00-.713 1.234c.016.487.202.952.524 1.315a2.06 2.06 0 001.241.671 2.055 2.055 0 001.349-.517 2.08 2.08 0 00.682-1.279zM590.361 62.853h5.471c.877 0 1.498.256 1.52 1.238.023.982-.61 1.294-1.564 1.294h-10.82c-.887 0-1.331-.279-1.342-1.238-.011-.96.444-1.328 1.387-1.305 1.742.033 3.573.01 5.348.01zM581.806 64.08c.011 1.205-.499 1.73-1.709 1.73-1.209 0-1.709-.48-1.72-1.652-.011-1.171.499-1.696 1.72-1.763 1.221-.067 1.698.502 1.709 1.685z" fill="#16E9C2"/><path d="M570.165 123.073a10.64 10.64 0 01-1.109-5.031c-.056-19.356.155-53.817.155-53.95 0-4.028 4.294-6.092 7.668-6.092 9.166.067 18.332 0 27.498 0a7.626 7.626 0 015.377 2.255 7.708 7.708 0 012.235 5.41v53.437a7.828 7.828 0 01-2.064 5.053 9.15 9.15 0 01-3.984 2.533 4.587 4.587 0 01-1.598.29h-26.632a9.357 9.357 0 01-4.882-1.283 7.217 7.217 0 01-2.309-2.165 4.262 4.262 0 01-.355-.457zm39.305-56.717c-.1-3.001-2.741-5.79-5.471-5.801h-27.054a5.281 5.281 0 00-2.365.615c-.73.387-1.36.94-1.84 1.616a6.732 6.732 0 00-1.188 5.12c-.288.848 0 27.02 0 39.259 0 .256.123 8.512 0 10.988a6.226 6.226 0 001.817 4.526 6.175 6.175 0 004.509 1.811h25.245a6.056 6.056 0 004.615-1.775 6.101 6.101 0 001.765-4.64v-10.453c-.033-12.406-.011-40.697-.033-41.266z" fill="#0C0055"/><path d="M362.631 93.708c0-3.724-3.08-4.788-5.992-5.572v-5.46c1.484.252 2.856.924 3.92 2.044l1.652-2.072c-1.4-1.428-3.248-2.324-5.572-2.548v-2.604h-1.988v2.576c-3.472.252-5.852 2.408-5.852 5.292 0 3.528 2.996 4.564 5.852 5.292v6.104c-2.1-.252-3.752-1.344-4.844-2.548l-1.596 2.156c1.428 1.596 3.556 2.744 6.44 2.94v2.492h1.988v-2.52c4.256-.336 5.992-2.884 5.992-5.572zm-10.948-8.54c0-1.456 1.176-2.464 2.968-2.604v5.04c-1.68-.476-2.968-1.092-2.968-2.436zm4.956 11.592v-5.572c1.764.532 3.136 1.176 3.136 2.772 0 1.176-.84 2.548-3.136 2.8zM588.934 91.924h3.136l.56-12.6h-4.312l.616 12.6zm-.672 4.116c0 1.204 1.008 2.24 2.24 2.24 1.232 0 2.24-1.036 2.24-2.24 0-1.232-1.008-2.268-2.24-2.268-1.232 0-2.24 1.036-2.24 2.268z" fill="#16E9C2"/><circle cx="347.5" cy="374.5" r="60.5" stroke="#0C0055" stroke-width="2"/><circle cx="288.5" cy="371.5" r="13.5" fill="#16E9C2"/><path d="M284.165 367.2v5.432h2.422c.154-.308.518-.672 1.232-.672.882 0 1.526.602 1.526 1.638 0 1.19-.7 1.946-1.848 1.946-1.176 0-1.82-.756-1.82-1.876v-.14h-1.848v.252c0 2.072 1.512 3.416 3.724 3.416 2.17 0 3.64-1.47 3.64-3.682 0-1.96-1.372-3.122-2.898-3.122-1.316 0-1.848.658-2.114 1.036h-.168v-2.548h4.816v-1.68h-6.664z" fill="#0C0055"/><circle cx="54.5" cy="371.5" r="13.5" fill="#16E9C2"/><path d="M53.175 367.2l-3.836 6.244v1.624h4.872V377h1.848v-1.932h1.596v-1.68h-1.596V367.2h-2.884zm.868 1.596h.168v4.592h-2.94l2.772-4.592z" fill="#0C0055"/><g clip-path="url(#clip0)"><path d="M349.63 339H351c3.79 1.7 7.57 3.43 11.37 5.11 4.78 2.1 9.59 4.17 14.38 6.25a1.366 1.366 0 01.93 1.47v2.57c0 .28 0 .6.41.59a4.648 4.648 0 014.54 2.87v3.81c-.28.12-.2.43-.33.64a4.646 4.646 0 01-4.62 2.25H323c-1.54 0-3-.17-4-1.51-.42-.44-.7-.92-1-1.38v-3.62a4.41 4.41 0 014.39-3c.49 0 .57-.25.57-.65v-2.48a1.379 1.379 0 011-1.49c4-1.72 7.92-3.51 11.88-5.25 2.84-1.25 5.72-2.41 8.54-3.72 1.72-.85 3.62-1.46 5.25-2.46zm.67 16h23.32c1.94 0 2 0 1.9-2 0-.33.19-.69-.36-.93-3.58-1.5-7.16-3.07-10.68-4.67-3.93-1.73-7.88-3.4-11.8-5.18-1.4-.62-2.56-1.06-4.21-.25-4.27 2.09-8.7 3.87-13.07 5.78-2.9 1.27-5.79 2.58-8.71 3.81-1.62.68-1.58.62-1.67 2.34 0 1 .32 1.13 1.19 1.12 8.03-.02 16.06-.02 24.09-.02zm.09 2.29H322.3a2.219 2.219 0 00-2.19 1.58c-.46 2.3.58 3.56 2.95 3.56h54.46c2.32 0 3-.66 3-3a1.934 1.934 0 00-.552-1.643 1.938 1.938 0 00-1.648-.537l-27.93.04zM379.54 398.44h-58.49a5.586 5.586 0 01-3-2.86V392a4.607 4.607 0 012.3-2.57c.36-.15.29-.35.21-.66a4.831 4.831 0 01-.17-2 4.002 4.002 0 012.61-3.03h54.63c2.51 1.42 3 2.41 2.42 5.09-.06.26-.11.41.17.51a4.864 4.864 0 012.36 2.43v3.81a5.227 5.227 0 01-3.04 2.86zm-29.23-7.24h-28a2.252 2.252 0 00-2.2 1.57c-.47 2.29.58 3.57 2.94 3.57h54.67c2.07 0 2.77-.7 2.77-2.76 0-1.66-.72-2.38-2.37-2.38h-27.81zm0-2.29h26c.374.071.762.003 1.09-.19a1.534 1.534 0 00.79-1.57 1.923 1.923 0 00-2-1.3h-51.78a1.79 1.79 0 00-2 1.48c0 .85.86 1.56 2 1.56l25.9.02z" fill="#0C0055"/><path d="M340.48 364.56v19.18h-2.29v-19.18h2.29zM360.1 383.74v-19.18h2.29v19.18h-2.29zM325.05 364.56v19.18H323v-19.18h2.05zM329.62 383.74v-19.18h2.1v19.18h-2.1zM344.86 383.74v-19.18H347v19.18h-2.14zM355.72 364.56v19.18h-2.09v-19.18h2.09zM371 364.56v19.18h-2.13v-19.18H371zM375.53 383.74v-19.18h2.1v19.18h-2.1z" fill="#16E9C2"/><path d="M347.15 348.8a3.057 3.057 0 013.25-3.13 3.106 3.106 0 012.93 1.982c.152.391.224.809.21 1.228a3.21 3.21 0 01-2.003 3.059 3.193 3.193 0 01-1.267.231c-1.58.03-3.44-1.52-3.12-3.37zm4.19.48c0-1-.38-1.4-1-1.42a1.002 1.002 0 00-1.06 1.06 1.004 1.004 0 00.625 1.009.999.999 0 00.415.071c.53 0 1.03-.33 1.02-.72z" fill="#0C0055"/></g><circle cx="580.5" cy="373.5" r="60.5" stroke="#0C0055" stroke-width="2"/><path d="M556 349.573a5.427 5.427 0 011.549-3.748 5.392 5.392 0 013.707-1.619h3.935a1.354 1.354 0 001.405-.814 5.072 5.072 0 014.756-2.767c.947 0 1.905-.052 2.852 0 .384.061.776-.019 1.107-.224.33-.205.576-.522.694-.893a6.117 6.117 0 013.643-3.245 6.097 6.097 0 014.85.467 5.518 5.518 0 012.737 3.133 1.044 1.044 0 001.176.793h3.05a5.242 5.242 0 013.001.645 5.269 5.269 0 012.13 2.216 1.166 1.166 0 001.187.689h3.434a5.636 5.636 0 013.543.913 5.665 5.665 0 012.244 2.898v55.213a5.689 5.689 0 01-3.736 3.769H559.82a5.452 5.452 0 01-3.383-2.965 5.897 5.897 0 01-.437-2.318c.052-17.374.094-34.758 0-52.143zm35.242-6.682h-4.413a1.29 1.29 0 01-1.052-.274 1.315 1.315 0 01-.478-.979 3.715 3.715 0 00-.946-2.087 3.69 3.69 0 00-1.989-1.129 3.632 3.632 0 00-3.716 1.263 3.584 3.584 0 00-.874 1.963c-.125.961-.624 1.274-1.53 1.253h-4.226c-2.269 0-3.955 1.117-3.715 3.748.046.595.046 1.192 0 1.786-.063.867.312 1.159 1.155 1.148h24.064c.926 0 1.342-.292 1.259-1.253a11.316 11.316 0 010-1.785c.187-2.297-1.249-3.581-3.539-3.644v-.01zm4.309 9.125h-27.987c-.843 0-1.489-.271-1.676-1.18a.72.72 0 00-.781-.605h-.093c-3.06 0-2.592-.251-2.602 2.453v46.255c0 1.65 0 1.66 1.613 1.66h35.086c1.561 0 1.561 0 1.561-1.618v-47.236c0-1.493 0-1.504-1.478-1.504h-1.176a.758.758 0 00-.843.648c-.187.866-.802 1.127-1.624 1.127zm-37.271 23.723v25.413c0 2.559 1.04 3.624 3.57 3.624h39.405c2.373 0 3.549-1.18 3.549-3.592V350.46c0-2.756-.801-3.696-3.528-3.957-1.041-.104-2.155 0-3.237 0-.5 0-.812.188-.812.752 0 .564.333.741.822.741h3.123c1.363 0 1.707.345 1.707 1.692v50.848c.01.415-.004.83-.042 1.243a1.116 1.116 0 01-1.041 1.044 9.513 9.513 0 01-1.041 0h-38.406c-2.019 0-2.186-.125-2.186-2.182v-50.932c0-1.368.344-1.713 1.676-1.723h3.05c.489 0 .937-.052.957-.71.021-.658-.416-.835-.957-.835a24.525 24.525 0 00-4.018.177 2.867 2.867 0 00-1.892.991 2.887 2.887 0 00-.689 2.027v6.15l-.01 19.953z" fill="#0C0055"/><path d="M589.775 360.015a3.97 3.97 0 01-1.26.135h-21.128a4.8 4.8 0 01-1.166-.083 1.185 1.185 0 01-.916-1.253c0-.595.406-.877.895-1.044.286-.069.58-.1.874-.094h21.857a3.92 3.92 0 01.781 0 1.177 1.177 0 011.041 1.169 1.098 1.098 0 01-.978 1.17zM565.961 374.371a2.69 2.69 0 011.342-.188h21.41a5.03 5.03 0 01.885 0 1.178 1.178 0 011.04 1.107 1.106 1.106 0 01-.926 1.211 4.27 4.27 0 01-1.259.115H567.47a3.787 3.787 0 01-1.447-.209 1.122 1.122 0 01-.718-1.044 1.047 1.047 0 01.656-.992zM589.712 384.969a7.599 7.599 0 01-.978 0h-21.711c-1.239 0-1.728-.334-1.718-1.128.011-.793.573-1.148 1.728-1.148h21.857a3.92 3.92 0 01.781 0 1.099 1.099 0 01.968 1.18 1.046 1.046 0 01-.927 1.096zM589.587 368.295c-.325.02-.652.02-.978 0h-21.992c-.75 0-1.322-.282-1.291-1.139.031-.856.572-1.127 1.332-1.138h22.18c.263-.015.528-.015.791 0a1.117 1.117 0 010 2.235l-.042.042zM597.779 358.866a1.131 1.131 0 01-.937 1.222 13.16 13.16 0 01-3.893 0 1.042 1.042 0 01-.916-1.316 1.102 1.102 0 01.752-.994c.14-.046.288-.063.435-.05h1.561a15.214 15.214 0 011.957 0 1.035 1.035 0 01.99.71c.046.137.064.283.051.428zM592.772 374.277a14.908 14.908 0 014.091 0 1.043 1.043 0 01.916 1.107 1.186 1.186 0 01-.906 1.138 6.766 6.766 0 01-2.082.084c-.582.047-1.166.047-1.748 0a1.158 1.158 0 01-1.041-1.222c0-.585.208-1.034.77-1.107zM592.897 366.071c1.27 0 2.55-.053 3.82 0a1.045 1.045 0 011.041 1.179c0 .277-.11.543-.305.739-.195.196-.46.306-.736.306h-3.716c-.614 0-.957-.47-.947-1.128.01-.658.198-1.076.843-1.096zM592.918 382.756c1.27 0 2.55-.053 3.82 0a1.046 1.046 0 011.041 1.106 1.042 1.042 0 01-1.103 1.118h-3.716c-.646 0-.937-.502-.927-1.149.011-.647.25-1.055.885-1.075z" fill="#16E9C2"/><path d="M581.531 345.46a3.19 3.19 0 01-2.259-.939 3.213 3.213 0 010-4.533 3.19 3.19 0 012.259-.939 3.119 3.119 0 012.976 1.974c.156.395.231.817.22 1.242a3.14 3.14 0 01-1.964 2.972c-.391.157-.81.233-1.232.223zm0-4.396a1.203 1.203 0 00-.668.197 1.203 1.203 0 00.42 2.181 1.19 1.19 0 001.232-.509c.132-.198.203-.43.203-.668a1.19 1.19 0 00-1.176-1.201h-.011z" fill="#0C0055"/><path d="M566.346 393.426l1.561 1.567 4.684-4.699" stroke="#16E9C2" stroke-width="2" stroke-miterlimit="10" stroke-linecap="round"/><circle cx="519.5" cy="373.5" r="13.5" fill="#16E9C2"/><path d="M522.179 375.78c0-1.862-1.33-3.192-3.108-3.192-1.316 0-1.862.588-2.1.924h-.168v-1.12c0-1.12.658-1.736 1.82-1.736 1.064 0 1.596.616 1.596 1.456h1.876c0-1.96-1.442-3.108-3.472-3.108-2.086 0-3.668 1.19-3.668 3.5v3.43c0 1.918 1.526 3.276 3.584 3.248 2.128-.028 3.64-1.372 3.64-3.402zm-3.612-1.75c1.05 0 1.764.686 1.764 1.75s-.742 1.75-1.764 1.75-1.764-.658-1.764-1.75c0-1.064.714-1.75 1.764-1.75z" fill="#0C0055"/><defs><clipPath id="clip0"><path fill="#fff" d="M318 339h64.58v59.44H318z"/></clipPath></defs></svg>